<svg width="1172" height="873" viewBox="0 0 1172 873" fill="none" xmlns="http://www.w3.org/2000/svg">
<path d="M441.958 13.2822C800.358 -57.1178 923.291 169.949 937.958 281.283V291.283C1068.62 403.283 1283.96 663.283 1099.96 807.283C869.958 987.283 579.958 745.283 441.958 683.283C303.958 621.283 153.958 775.283 59.9577 683.283C-34.0423 591.283 111.958 543.282 115.958 471.282C119.958 399.282 85.9577 437.283 23.9577 365.283C-38.0423 293.283 -6.0423 101.282 441.958 13.2822Z" fill="#00C7E4"/>
<path d="M441.958 13.2822C800.358 -57.1178 923.291 169.949 937.958 281.283V291.283C1068.62 403.283 1283.96 663.283 1099.96 807.283C869.958 987.283 579.958 745.283 441.958 683.283C303.958 621.283 153.958 775.283 59.9577 683.283C-34.0423 591.283 111.958 543.282 115.958 471.282C119.958 399.282 85.9577 437.283 23.9577 365.283C-38.0423 293.283 -6.0423 101.282 441.958 13.2822Z" fill="url(#paint0_linear)"/>
<defs>
<linearGradient id="paint0_linear" x1="77.9578" y1="373.282" x2="1321.96" y2="409.282" gradientUnits="userSpaceOnUse">
<stop stop-color="#701B6F"/>
<stop offset="0.322917" stop-color="#007AC0"/>
<stop offset="1" stop-color="white" stop-opacity="0"/>
</linearGradient>
</defs>
</svg>
