<svg xmlns="http://www.w3.org/2000/svg" viewBox="0 0 864 876" width="864" height="876" preserveAspectRatio="xMidYMid meet" style="width: 100%; height: 100%; transform: translate3d(0px, 0px, 0px);"><defs><clipPath id="__lottie_element_133"><rect width="864" height="876" x="0" y="0"></rect></clipPath><linearGradient id="__lottie_element_154" spreadMethod="pad" gradientUnits="userSpaceOnUse" x1="-58.5" y1="-456.2019958496094" x2="213.01800537109375" y2="-683.5859985351562"><stop offset="3%" stop-color="rgb(138,1,17)"></stop><stop offset="52%" stop-color="rgb(177,1,22)"></stop><stop offset="100%" stop-color="rgb(177,1,22)"></stop></linearGradient><linearGradient id="__lottie_element_173" spreadMethod="pad" gradientUnits="userSpaceOnUse" x1="-64.5" y1="32.49300003051758" x2="415.95599365234375" y2="-512.2540283203125"><stop offset="3%" stop-color="rgb(186,186,186)"></stop><stop offset="52%" stop-color="rgb(120,120,120)"></stop><stop offset="100%" stop-color="rgb(0,0,0)"></stop></linearGradient><linearGradient id="__lottie_element_180" spreadMethod="pad" gradientUnits="userSpaceOnUse"><stop></stop><stop></stop><stop></stop></linearGradient></defs><g clip-path="url(#__lottie_element_133)"><g style="display: none;"><g><path></path></g></g><g style="display: none;"><g><path fill="url(#__lottie_element_180)"></path></g></g><g style="display: block;" transform="matrix(0.9997478723526001,0,0,0.9997478723526001,432.0008544921875,444.0187683105469)" opacity="1"><g opacity="1" transform="matrix(1,0,0,1,0,0)"><path fill="rgb(192,192,192)" fill-opacity="1" d=" M-60.965999603271484,243.8280029296875 C-60.965999603271484,243.8280029296875 -303.5150146484375,117.20999908447266 -303.5150146484375,117.20999908447266 C-312.2309875488281,112.65899658203125 -311.02899169921875,104.24099731445312 -300.8290100097656,98.40599822998047 C-300.8290100097656,98.40599822998047 33.41899871826172,-92.76000213623047 33.41899871826172,-92.76000213623047 C43.619998931884766,-98.59500122070312 58.95600128173828,-99.63500213623047 67.67500305175781,-95.08399963378906 C67.67500305175781,-95.08399963378906 310.2239990234375,31.5310001373291 310.2239990234375,31.5310001373291 C318.94000244140625,36.082000732421875 317.7380065917969,44.5 307.5379943847656,50.33399963378906 C307.5379943847656,50.33399963378906 -26.709999084472656,241.50100708007812 -26.709999084472656,241.50100708007812 C-36.91299819946289,247.33799743652344 -52.24700164794922,248.3780059814453 -60.965999603271484,243.8280029296875z"></path></g></g><g style="display: block;" transform="matrix(1,0,0,1,432,443.956787109375)" opacity="1"><g opacity="1" transform="matrix(1,0,0,1,0,0)"><path fill="rgb(2,2,2)" fill-opacity="1" d=" M319.8290100097656,0.0430000014603138 C318.9360046386719,-0.8220000267028809 317.8429870605469,-1.6269999742507935 316.489990234375,-2.3320000171661377 C316.489990234375,-2.3320000171661377 66.33699798583984,-132.9199981689453 66.33699798583984,-132.9199981689453 C57.34600067138672,-137.61399841308594 41.52899932861328,-136.53900146484375 31.007999420166016,-130.5229949951172 C31.007999420166016,-130.5229949951172 -313.7200012207031,66.63600158691406 -313.7200012207031,66.63600158691406 C-314.90301513671875,67.31199645996094 -315.95001220703125,68.0270004272461 -316.8970031738281,68.76100158691406 C-316.8970031738281,68.76100158691406 -322.4949951171875,71.32599639892578 -322.4949951171875,71.32599639892578 C-322.4949951171875,71.32599639892578 -322.38299560546875,79.06800079345703 -322.38299560546875,79.06800079345703 C-321.9460144042969,81.73300170898438 -320.0169982910156,84.19000244140625 -316.4909973144531,86.02999877929688 C-316.4909973144531,86.02999877929688 -66.33799743652344,216.61599731445312 -66.33799743652344,216.61599731445312 C-57.34700012207031,221.30999755859375 -41.529998779296875,220.23500061035156 -31.009000778198242,214.218994140625 C-31.009000778198242,214.218994140625 313.72100830078125,17.059999465942383 313.72100830078125,17.059999465942383 C319.1830139160156,13.935999870300293 322.1199951171875,10.095000267028809 322.44500732421875,6.4629998207092285 C322.44500732421875,6.4629998207092285 322.49798583984375,0.28600001335144043 322.49798583984375,0.28600001335144043 C322.49798583984375,0.28600001335144043 319.8290100097656,0.0430000014603138 319.8290100097656,0.0430000014603138z"></path></g><g opacity="1" transform="matrix(1,0,0,1,0,0)"><path fill="url(#__lottie_element_173)" fill-opacity="1" d=" M-66.33599853515625,210.26400756835938 C-66.33599853515625,210.26400756835938 -316.49200439453125,79.67900085449219 -316.49200439453125,79.67900085449219 C-325.4830017089844,74.98500061035156 -324.24200439453125,66.30400085449219 -313.72100830078125,60.2869987487793 C-313.72100830078125,60.2869987487793 31.006999969482422,-136.87399291992188 31.006999969482422,-136.87399291992188 C41.52799987792969,-142.89100646972656 57.34600067138672,-143.96499633789062 66.33599853515625,-139.27099609375 C66.33599853515625,-139.27099609375 316.489990234375,-8.685999870300293 316.489990234375,-8.685999870300293 C325.4800109863281,-3.992000102996826 324.239013671875,4.689000129699707 313.718994140625,10.706000328063965 C313.718994140625,10.706000328063965 -31.009000778198242,207.86700439453125 -31.009000778198242,207.86700439453125 C-41.529998779296875,213.88400268554688 -57.345001220703125,214.95799255371094 -66.33599853515625,210.26400756835938z"></path></g><g opacity="1" transform="matrix(1,0,0,1,0,0)"><path fill="rgb(255,255,255)" fill-opacity="1" d=" M-50.880001068115234,189.50799560546875 C-50.880001068115234,189.50799560546875 -291.3819885253906,63.959999084472656 -291.3819885253906,63.959999084472656 C-291.3819885253906,63.959999084472656 54.220001220703125,-128.76800537109375 54.220001220703125,-128.76800537109375 C54.220001220703125,-128.76800537109375 294.7200012207031,-3.2219998836517334 294.7200012207031,-3.2219998836517334 C294.7200012207031,-3.2219998836517334 -50.880001068115234,189.50799560546875 -50.880001068115234,189.50799560546875z"></path></g><g opacity="1" transform="matrix(1,0,0,1,0,0)"><path stroke-linecap="round" stroke-linejoin="round" fill-opacity="0" stroke="rgb(69,69,69)" stroke-opacity="1" stroke-width="2.875" d=" M-50.880001068115234,189.50799560546875 C-50.880001068115234,189.50799560546875 -291.3819885253906,63.959999084472656 -291.3819885253906,63.959999084472656 C-291.3819885253906,63.959999084472656 54.220001220703125,-128.76800537109375 54.220001220703125,-128.76800537109375 C54.220001220703125,-128.76800537109375 294.7200012207031,-3.2219998836517334 294.7200012207031,-3.2219998836517334 C294.7200012207031,-3.2219998836517334 -50.880001068115234,189.50799560546875 -50.880001068115234,189.50799560546875z"></path></g><g opacity="1" transform="matrix(1,0,0,1,0,0)"><path fill="rgb(120,120,120)" fill-opacity="1" d=" M235.2550048828125,-50.72700119018555 C235.2550048828125,-50.72700119018555 227.03199768066406,-55.02000045776367 227.03199768066406,-55.02000045776367 C236.7270050048828,-60.42599868774414 236.7270050048828,-68.91300201416016 227.03199768066406,-73.97200012207031 C227.03199768066406,-73.97200012207031 182.49400329589844,-97.22100067138672 182.49400329589844,-97.22100067138672 C172.7989959716797,-102.28199768066406 157.08099365234375,-102.00299835205078 147.38600158691406,-96.59600067138672 C147.38600158691406,-96.59600067138672 141.86099243164062,-99.48200225830078 141.86099243164062,-99.48200225830078 C131.77000427246094,-104.75 115.40899658203125,-104.45800018310547 105.31999969482422,-98.83000183105469 C95.22899627685547,-93.2030029296875 95.22899627685547,-84.37100219726562 105.31999969482422,-79.10299682617188 C105.31999969482422,-79.10299682617188 198.71499633789062,-30.35099983215332 198.71499633789062,-30.35099983215332 C208.80499267578125,-25.08300018310547 225.16700744628906,-25.375 235.2550048828125,-31.00200080871582 C245.3459930419922,-36.62799835205078 245.3459930419922,-45.45899963378906 235.2550048828125,-50.72700119018555z"></path></g><g opacity="1" transform="matrix(1,0,0,1,0,0)"><path fill="rgb(69,69,69)" fill-opacity="1" d=" M235.2550048828125,-58.17300033569336 C235.2550048828125,-58.17300033569336 227.03199768066406,-62.465999603271484 227.03199768066406,-62.465999603271484 C236.7270050048828,-67.87200164794922 236.7270050048828,-76.35900115966797 227.03199768066406,-81.41799926757812 C227.03199768066406,-81.41799926757812 182.49400329589844,-104.66699981689453 182.49400329589844,-104.66699981689453 C172.7989959716797,-109.72799682617188 157.08099365234375,-109.4489974975586 147.38600158691406,-104.04199981689453 C147.38600158691406,-104.04199981689453 141.86099243164062,-106.9280014038086 141.86099243164062,-106.9280014038086 C131.77000427246094,-112.19599914550781 115.40899658203125,-111.90399932861328 105.31999969482422,-106.2760009765625 C95.22899627685547,-100.64900207519531 95.22899627685547,-91.81700134277344 105.31999969482422,-86.54900360107422 C105.31999969482422,-86.54900360107422 198.71499633789062,-37.797000885009766 198.71499633789062,-37.797000885009766 C208.80499267578125,-32.52899932861328 225.16400146484375,-32.82099914550781 235.2550048828125,-38.448001861572266 C245.3459930419922,-44.07400131225586 245.3459930419922,-52.904998779296875 235.2550048828125,-58.17300033569336z"></path></g><g opacity="1" transform="matrix(1,0,0,1,0,0)"><path fill="rgb(255,255,255)" fill-opacity="1" d=" M209.73300170898438,-59.465999603271484 C209.73300170898438,-59.465999603271484 141.5449981689453,-96.12200164794922 141.5449981689453,-96.12200164794922 C139.12899780273438,-97.41999816894531 139.0679931640625,-100.66799926757812 141.4290008544922,-102.13400268554688 C142.63299560546875,-102.87999725341797 144.1750030517578,-102.93399810791016 145.40699768066406,-102.27300262451172 C145.40699768066406,-102.27300262451172 213.593994140625,-65.61599731445312 213.593994140625,-65.61599731445312 C216.01100158691406,-64.31800079345703 216.07200622558594,-61.07099914550781 213.71099853515625,-59.60499954223633 C212.50599670410156,-58.85599899291992 210.9669952392578,-58.803001403808594 209.73300170898438,-59.465999603271484z"></path></g><g opacity="1" transform="matrix(1,0,0,1,0,0)"><path fill="rgb(215,215,215)" fill-opacity="1" d=" M60.71200180053711,56.63600158691406 C60.176998138427734,56.63600158691406 59.63800048828125,56.50899887084961 59.132999420166016,56.242000579833984 C59.132999420166016,56.242000579833984 -6.586999893188477,21.450000762939453 -6.586999893188477,21.450000762939453 C-8.23900032043457,20.575000762939453 -8.869999885559082,18.525999069213867 -7.995999813079834,16.87299919128418 C-7.122000217437744,15.217000007629395 -5.077000141143799,14.586999893188477 -3.4230000972747803,15.463000297546387 C-3.4230000972747803,15.463000297546387 62.29800033569336,50.25699996948242 62.29800033569336,50.25699996948242 C63.94900131225586,51.13199996948242 64.58000183105469,53.180999755859375 63.70600128173828,54.83399963378906 C63.0989990234375,55.981998443603516 61.92599868774414,56.63600158691406 60.71200180053711,56.63600158691406z"></path></g><g opacity="1" transform="matrix(1,0,0,1,0,0)"><path fill="rgb(215,215,215)" fill-opacity="1" d=" M81.97200012207031,92.74199676513672 C81.44499969482422,92.74199676513672 80.91000366210938,92.61799621582031 80.41000366210938,92.35800170898438 C80.41000366210938,92.35800170898438 -30.70599937438965,34.361000061035156 -30.70599937438965,34.361000061035156 C-32.36199951171875,33.494998931884766 -33.00600051879883,31.451000213623047 -32.14099884033203,29.791000366210938 C-31.277000427246094,28.132999420166016 -29.23200035095215,27.488000869750977 -27.575000762939453,28.354000091552734 C-27.575000762939453,28.354000091552734 83.54299926757812,86.35099792480469 83.54299926757812,86.35099792480469 C85.1989974975586,87.21700286865234 85.84300231933594,89.26100158691406 84.97799682617188,90.9209976196289 C84.37100219726562,92.0790023803711 83.19100189208984,92.74199676513672 81.97200012207031,92.74199676513672z"></path></g><g opacity="1" transform="matrix(1,0,0,1,0,0)"><path fill="rgb(215,215,215)" fill-opacity="1" d=" M-34.792999267578125,109.072998046875 C-35.32699966430664,109.072998046875 -35.86600112915039,108.9469985961914 -36.37200164794922,108.68000030517578 C-36.37200164794922,108.68000030517578 -102.09200286865234,73.88500213623047 -102.09200286865234,73.88500213623047 C-103.74299621582031,73.01000213623047 -104.375,70.96099853515625 -103.5,69.30799865722656 C-102.6259994506836,67.65299987792969 -100.5790023803711,67.02300262451172 -98.927001953125,67.89800262451172 C-98.927001953125,67.89800262451172 -33.207000732421875,102.69200134277344 -33.207000732421875,102.69200134277344 C-31.555999755859375,103.56700134277344 -30.923999786376953,105.61699676513672 -31.79800033569336,107.2699966430664 C-32.40599822998047,108.41699981689453 -33.57899856567383,109.072998046875 -34.792999267578125,109.072998046875z"></path></g><g opacity="1" transform="matrix(1,0,0,1,0,0)"><path fill="rgb(215,215,215)" fill-opacity="1" d=" M-13.532999992370605,145.17999267578125 C-14.0600004196167,145.17999267578125 -14.595000267028809,145.05599975585938 -15.095000267028809,144.79600524902344 C-15.095000267028809,144.79600524902344 -126.21299743652344,86.79900360107422 -126.21299743652344,86.79900360107422 C-127.86900329589844,85.93299865722656 -128.51300048828125,83.88899993896484 -127.64800262451172,82.22899627685547 C-126.78399658203125,80.57099914550781 -124.73899841308594,79.9260025024414 -123.08300018310547,80.79199981689453 C-123.08300018310547,80.79199981689453 -11.96399974822998,138.78900146484375 -11.96399974822998,138.78900146484375 C-10.307999610900879,139.65499877929688 -9.664999961853027,141.69900512695312 -10.529000282287598,143.35899353027344 C-11.133999824523926,144.51699829101562 -12.312000274658203,145.17999267578125 -13.532999992370605,145.17999267578125z"></path></g><g opacity="1" transform="matrix(1,0,0,1,0,0)"><path fill="rgb(215,215,215)" fill-opacity="1" d=" M-161.61500549316406,66.83799743652344 C-161.61500549316406,66.83799743652344 -204.53799438476562,44.29399871826172 -204.53799438476562,44.29399871826172 C-204.53799438476562,44.29399871826172 -161.7530059814453,20.375999450683594 -161.7530059814453,20.375999450683594 C-161.7530059814453,20.375999450683594 -118.83000183105469,42.91999816894531 -118.83000183105469,42.91999816894531 C-118.83000183105469,42.91999816894531 -161.61500549316406,66.83799743652344 -161.61500549316406,66.83799743652344z"></path></g><g opacity="1" transform="matrix(1,0,0,1,0,0)"><path stroke-linecap="round" stroke-linejoin="round" fill-opacity="0" stroke="rgb(255,255,255)" stroke-opacity="1" stroke-width="15.571" d=" M-171.0590057373047,35.428001403808594 C-171.0590057373047,35.428001403808594 -174.14100646972656,47.73099899291992 -174.14100646972656,47.73099899291992 C-174.14100646972656,47.73099899291992 -143.77099609375,44.56399917602539 -143.77099609375,44.56399917602539"></path></g></g><g style="display: block;" transform="matrix(0.8206483721733093,0,0,0.8206483721733093,208.0982666015625,365.50860595703125)" opacity="1"><g opacity="1" transform="matrix(1,0,0,1,0,0)"><path fill="rgb(215,215,215)" fill-opacity="1" d=" M123.21199798583984,28.305999755859375 C137.67999267578125,28.305999755859375 149.40899658203125,22.003000259399414 149.40899658203125,14.227999687194824 C149.40899658203125,6.453000068664551 137.67999267578125,0.15000000596046448 123.21199798583984,0.15000000596046448 C108.74400329589844,0.15000000596046448 97.01499938964844,6.453000068664551 97.01499938964844,14.227999687194824 C97.01499938964844,22.003000259399414 108.74400329589844,28.305999755859375 123.21199798583984,28.305999755859375z"></path></g></g><g style="display: block;" transform="matrix(1,0,0,1,185.99998474121094,352.98919677734375)" opacity="1"><g opacity="1" transform="matrix(1,0,0,1,0,0)"><path fill="rgb(69,69,69)" fill-opacity="1" d=" M123.21199798583984,15.862000465393066 C121.81099700927734,15.862000465393066 120.66200256347656,14.71399974822998 120.66200256347656,13.309000015258789 C120.66200256347656,13.309000015258789 120.66200256347656,-22.722000122070312 120.66200256347656,-22.722000122070312 C120.66200256347656,-24.125 121.80799865722656,-25.274999618530273 123.21199798583984,-25.274999618530273 C124.61299896240234,-25.274999618530273 125.76200103759766,-24.12700080871582 125.76200103759766,-22.722000122070312 C125.76200103759766,-22.722000122070312 125.76200103759766,13.309000015258789 125.76200103759766,13.309000015258789 C125.76000213623047,14.71399974822998 124.61299896240234,15.862000465393066 123.21199798583984,15.862000465393066z"></path></g><g opacity="1" transform="matrix(1,0,0,1,0,0)"><path fill="rgb(126,211,33)" fill-opacity="1" d=" M146.3350067138672,-57.66899871826172 C146.51699829101562,-59.03799819946289 146.61199951171875,-60.441001892089844 146.61199951171875,-61.86800003051758 C146.61199951171875,-68.38500213623047 144.64199829101562,-74.36499786376953 141.35899353027344,-79.052001953125 C141.80999755859375,-80.93399810791016 142.05799865722656,-82.91500091552734 142.05799865722656,-84.96600341796875 C142.05799865722656,-97.0770034790039 133.61900329589844,-106.89600372314453 123.20999908447266,-106.89600372314453 C112.8010025024414,-106.89600372314453 104.36100006103516,-97.0770034790039 104.36100006103516,-84.96600341796875 C104.36100006103516,-82.91699981689453 104.60900115966797,-80.93599700927734 105.06099700927734,-79.052001953125 C101.77999877929688,-74.36499786376953 99.80799865722656,-68.38500213623047 99.80799865722656,-61.86800003051758 C99.80799865722656,-60.441001892089844 99.9020004272461,-59.03799819946289 100.08399963378906,-57.66899871826172 C94.33100128173828,-52.75600051879883 90.77799987792969,-46.02000045776367 90.77799987792969,-38.58700180053711 C90.77799987792969,-23.548999786376953 105.29900360107422,-11.359999656677246 123.20999908447266,-11.359999656677246 C141.12100219726562,-11.359999656677246 155.64100646972656,-23.551000595092773 155.64100646972656,-38.58700180053711 C155.64100646972656,-46.02000045776367 152.08799743652344,-52.75400161743164 146.3350067138672,-57.66899871826172z"></path></g><g opacity="1" transform="matrix(1,0,0,1,0,0)"><path fill="rgb(65,117,5)" fill-opacity="1" d=" M146.3350067138672,-57.66899871826172 C146.51699829101562,-59.03799819946289 146.61099243164062,-60.441001892089844 146.61099243164062,-61.86800003051758 C146.61099243164062,-68.38500213623047 144.64199829101562,-74.36499786376953 141.35800170898438,-79.052001953125 C141.80999755859375,-80.93399810791016 142.05799865722656,-82.91500091552734 142.05799865722656,-84.96600341796875 C142.05799865722656,-94.0999984741211 137.2570037841797,-101.927001953125 130.4320068359375,-105.22599792480469 C123.20899963378906,-60.141998291015625 144.12899780273438,-39.65399932861328 112.677001953125,-12.838000297546387 C115.9800033569336,-11.885000228881836 119.5199966430664,-11.362000465393066 123.20899963378906,-11.362000465393066 C141.1199951171875,-11.362000465393066 155.64100646972656,-23.554000854492188 155.64100646972656,-38.5890007019043 C155.64100646972656,-46.02000045776367 152.08799743652344,-52.75400161743164 146.3350067138672,-57.66899871826172z"></path></g></g><g style="display: block;" transform="matrix(1,0,0,1,432,443.956787109375)" opacity="1"><g opacity="1" transform="matrix(1,0,0,1,0,0)"><path fill="rgb(151,151,151)" fill-opacity="1" d=" M193.5,32.236000061035156 C191.0570068359375,26.163999557495117 179.4149932861328,22.27899932861328 173.00799560546875,24.274999618530273 C172.93299865722656,24.298999786376953 172.85699462890625,24.326000213623047 172.78199768066406,24.35300064086914 C172.78199768066406,24.35300064086914 172.77999877929688,24.347999572753906 172.77999877929688,24.347999572753906 C172.77999877929688,24.347999572753906 26.042999267578125,69.89399719238281 25.695999145507812,70.02999877929688 C25.695999145507812,70.02999877929688 2.311000108718872,92.30699920654297 2.311000108718872,92.30699920654297 C2.311000108718872,92.30699920654297 33.0620002746582,93.11199951171875 33.0620002746582,93.11199951171875 C33.5890007019043,92.74500274658203 179.29800415039062,47.03300094604492 179.29800415039062,47.03300094604492 C179.29800415039062,47.03300094604492 197.19700622558594,41.42300033569336 193.5,32.236000061035156z"></path></g></g><g style="display: block;" transform="matrix(1,0,0,1,432,443.956787109375)" opacity="1"><g opacity="1" transform="matrix(1,0,0,1,0,0)"><path fill="rgb(245,215,35)" fill-opacity="1" d=" M176.88699340820312,43.52299880981445 C176.88699340820312,43.52299880981445 32.20100021362305,88.99299621582031 32.20100021362305,88.99299621582031 C32.20100021362305,88.99299621582031 28.06999969482422,74.06300354003906 28.06999969482422,74.06300354003906 C28.06999969482422,74.06300354003906 168.41700744628906,29.868000030517578 168.41700744628906,29.868000030517578 C189.35800170898438,23.445999145507812 189.18499755859375,38.31700134277344 176.88699340820312,43.52299880981445z"></path></g><g opacity="1" transform="matrix(1,0,0,1,0,0)"><path fill="rgb(245,192,35)" fill-opacity="1" d=" M28.53499984741211,75.19999694824219 C28.229000091552734,69.25399780273438 23.577999114990234,72.71399688720703 25.583999633789062,65.24800109863281 C25.583999633789062,65.24800109863281 157.66700744628906,25.027999877929688 157.66700744628906,25.027999877929688 C166.88600158691406,24.724000930786133 168.46400451660156,27.041000366210938 168.57000732421875,31.354000091552734 C168.57000732421875,31.354000091552734 28.53499984741211,75.19999694824219 28.53499984741211,75.19999694824219z"></path></g><g opacity="1" transform="matrix(1,0,0,1,0,0)"><path fill="rgb(225,234,244)" fill-opacity="1" d=" M25.083999633789062,65.83200073242188 C25.083999633789062,65.83200073242188 3.3529999256134033,87.68599700927734 3.3529999256134033,87.68599700927734 C3.3529999256134033,87.68599700927734 32.446998596191406,88.91100311279297 32.446998596191406,88.91100311279297 C39.755001068115234,83.81600189208984 31.743000030517578,63.237998962402344 25.083999633789062,65.83200073242188z"></path></g><g opacity="1" transform="matrix(1,0,0,1,0,0)"><path fill="rgb(255,255,255)" fill-opacity="1" d=" M25.315000534057617,65.44499969482422 C25.315000534057617,65.44499969482422 3.5829999446868896,87.29900360107422 3.5829999446868896,87.29900360107422 C3.5829999446868896,87.29900360107422 34.33000183105469,74.37899780273438 34.33000183105469,74.37899780273438 C32.435001373291016,68.7969970703125 28.700000762939453,64.125 25.315000534057617,65.44499969482422z"></path></g><g opacity="1" transform="matrix(1,0,0,1,0,0)"><path fill="rgb(69,69,69)" fill-opacity="1" d=" M172.39300537109375,20.07900047302246 C172.3179931640625,20.10300064086914 172.2429962158203,20.1299991607666 172.16700744628906,20.15399932861328 C172.16700744628906,20.15399932861328 172.1649932861328,20.14900016784668 172.1649932861328,20.14900016784668 C172.1649932861328,20.14900016784668 149.5959930419922,27.177000045776367 149.5959930419922,27.177000045776367 C155.90499877929688,26.430999755859375 162.83700561523438,43.81999969482422 156.78700256347656,49.6510009765625 C156.78700256347656,49.6510009765625 179.75900268554688,42.49700164794922 179.75900268554688,42.49700164794922 C179.75900268554688,42.49700164794922 179.7570037841797,42.492000579833984 179.7570037841797,42.492000579833984 C179.83200073242188,42.470001220703125 179.91000366210938,42.45100021362305 179.98500061035156,42.426998138427734 C186.39199829101562,40.430999755859375 189.88400268554688,33.81100082397461 187.78799438476562,27.638999938964844 C185.69500732421875,21.4689998626709 178.8000030517578,18.08300018310547 172.39300537109375,20.07900047302246z"></path></g><g opacity="1" transform="matrix(1,0,0,1,0,0)"><path fill="rgb(69,69,69)" fill-opacity="1" d=" M179.76199340820312,42.5 C179.76199340820312,42.5 179.75999450683594,42.494998931884766 179.75999450683594,42.494998931884766 C179.8350067138672,42.472999572753906 179.91299438476562,42.452999114990234 179.98800659179688,42.42900085449219 C186.2239990234375,40.48699951171875 189.12899780273438,32.93899917602539 187.3730010986328,26.90999984741211 C187.3730010986328,26.90999984741211 157.593994140625,35.367000579833984 157.593994140625,35.367000579833984 C157.593994140625,35.367000579833984 161.49899291992188,45.53300094604492 156.7899932861328,49.65399932861328 C156.7899932861328,49.65399932861328 179.76199340820312,42.5 179.76199340820312,42.5z"></path></g><g opacity="1" transform="matrix(1,0,0,1,0,0)"><path fill="rgb(245,192,35)" fill-opacity="1" d=" M172.54100036621094,20.083999633789062 C172.46600341796875,20.107999801635742 172.39100646972656,20.135000228881836 172.31500244140625,20.159000396728516 C172.31500244140625,20.159000396728516 172.31300354003906,20.15399932861328 172.31300354003906,20.15399932861328 C172.31300354003906,20.15399932861328 158.5279998779297,24.347999572753906 158.5279998779297,24.347999572753906 C165.3159942626953,24.224000930786133 171.75399780273438,39.75 166.16600036621094,46.82699966430664 C166.16600036621094,46.82699966430664 179.90699768066406,42.50400161743164 179.90699768066406,42.50400161743164 C179.90699768066406,42.50400161743164 179.90499877929688,42.5 179.90499877929688,42.5 C179.97999572753906,42.47800064086914 180.05799865722656,42.45800018310547 180.13299560546875,42.433998107910156 C186.5399932861328,40.4379997253418 190.03199768066406,33.819000244140625 187.93600463867188,27.64699935913086 C185.83999633789062,21.476999282836914 178.947998046875,18.090999603271484 172.54100036621094,20.083999633789062z"></path></g><g opacity="1" transform="matrix(1,0,0,1,0,0)"><path fill="rgb(245,215,35)" fill-opacity="1" d=" M179.90699768066406,42.505001068115234 C179.90699768066406,42.505001068115234 179.90499877929688,42.5 179.90499877929688,42.5 C179.97999572753906,42.47800064086914 180.05799865722656,42.45800018310547 180.13299560546875,42.433998107910156 C186.5399932861328,40.4379997253418 190.03199768066406,33.819000244140625 187.93600463867188,27.64699935913086 C187.81700134277344,27.298999786376953 187.6790008544922,26.961000442504883 187.531005859375,26.6299991607666 C187.531005859375,26.6299991607666 166.96099853515625,32.69599914550781 166.96099853515625,32.69599914550781 C169.48899841308594,42.292999267578125 167.52200317382812,44.775001525878906 166.16400146484375,46.82699966430664 C166.16400146484375,46.82699966430664 179.90699768066406,42.505001068115234 179.90699768066406,42.505001068115234z"></path></g><g opacity="1" transform="matrix(1,0,0,1,0,0)"><path fill="rgb(69,69,69)" fill-opacity="1" d=" M1.6970000267028809,88.10700225830078 C1.6970000267028809,88.10700225830078 12.92199993133545,78.05899810791016 12.92199993133545,78.05899810791016 C17.694000244140625,79.78299713134766 19.740999221801758,83.20800018310547 19.048999786376953,88.34500122070312 C19.048999786376953,88.34500122070312 1.6970000267028809,88.10700225830078 1.6970000267028809,88.10700225830078z"></path></g></g><g style="display: block;" transform="matrix(0.9993516802787781,0,0,0.9993516802787781,432,443.956787109375)" opacity="1"><g opacity="1" transform="matrix(1,0,0,1,0,0)"><path fill="rgb(151,151,151)" fill-opacity="0.51" d=" M20.013999938964844,-86.51000213623047 C20.013999938964844,-86.51000213623047 -126.5,2 -126.5,2 C-126.5,2 -99.11900329589844,16.739999771118164 -99.11900329589844,16.739999771118164 C-99.11900329589844,16.739999771118164 -117.9260025024414,27.35300064086914 -117.9260025024414,27.35300064086914 C-117.9260025024414,27.35300064086914 -49.573001861572266,63.145999908447266 -49.573001861572266,63.145999908447266 C-49.573001861572266,63.145999908447266 -28.378999710083008,51.25899887084961 -28.378999710083008,51.25899887084961 C-28.378999710083008,51.25899887084961 -3,64 -3,64 C-3,64 137.51400756835938,-21.510000228881836 137.51400756835938,-21.510000228881836 C137.51400756835938,-21.510000228881836 20.013999938964844,-86.51000213623047 20.013999938964844,-86.51000213623047z"></path></g></g><g style="display: block;" transform="matrix(1,0,0,1,431.9989929199219,443.92828369140625)" opacity="1"><g opacity="1" transform="matrix(1,0,0,1,0,0)"><path fill="rgb(245,245,245)" fill-opacity="1" d=" M29.395000457763672,-38.03799819946289 C29.395000457763672,-38.03799819946289 -13.531000137329102,-60.582000732421875 -13.531000137329102,-60.582000732421875 C-13.531000137329102,-60.582000732421875 29.253999710083008,-84.49800109863281 29.253999710083008,-84.49800109863281 C29.253999710083008,-84.49800109863281 72.18000030517578,-61.952999114990234 72.18000030517578,-61.952999114990234 C72.18000030517578,-61.952999114990234 29.395000457763672,-38.03799819946289 29.395000457763672,-38.03799819946289z"></path></g><g opacity="1" transform="matrix(1,0,0,1,0,0)"><path stroke-linecap="round" stroke-linejoin="round" fill-opacity="0" stroke="rgb(245,245,245)" stroke-opacity="1" stroke-width="15.571" d=" M19.947999954223633,-69.44499969482422 C19.947999954223633,-69.44499969482422 16.865999221801758,-57.14500045776367 16.865999221801758,-57.14500045776367 C16.865999221801758,-57.14500045776367 47.237998962402344,-60.310001373291016 47.237998962402344,-60.310001373291016"></path></g><g opacity="1" transform="matrix(1,0,0,1,0,0)"><path stroke-linecap="round" stroke-linejoin="round" fill-opacity="0" stroke="rgb(235,235,235)" stroke-opacity="1" stroke-width="15.571" d=" M-75.55699920654297,-17.010000228881836 C-75.55699920654297,-17.010000228881836 -78.63899993896484,-4.706999778747559 -78.63899993896484,-4.706999778747559 C-78.63899993896484,-4.706999778747559 -48.266998291015625,-7.872000217437744 -48.266998291015625,-7.872000217437744"></path></g><g opacity="1" transform="matrix(1,0,0,1,0,0)"><path fill="rgb(206,206,206)" fill-opacity="1" d=" M-117.29199981689453,-17.82699966430664 C-117.29199981689453,-17.82699966430664 -118.12100219726562,-118.50199890136719 -118.12100219726562,-118.50199890136719 C-118.12100219726562,-118.50199890136719 -77.88800048828125,-143.25599670410156 -77.88800048828125,-143.25599670410156 C-77.88800048828125,-143.25599670410156 -60.70399856567383,-141.69500732421875 -60.70399856567383,-141.69500732421875 C-60.70399856567383,-141.69500732421875 4.989999771118164,-81.29399871826172 4.989999771118164,-81.29399871826172 C4.989999771118164,-81.29399871826172 6.041999816894531,46.73699951171875 6.041999816894531,46.73699951171875 C6.041999816894531,46.73699951171875 -17.586000442504883,34.358001708984375 -17.586000442504883,34.358001708984375 C-17.586000442504883,34.358001708984375 -17.586000442504883,34.404998779296875 -17.586000442504883,34.404998779296875 C-17.586000442504883,34.404998779296875 -117.29199981689453,-17.82699966430664 -117.29199981689453,-17.82699966430664z"></path></g><g opacity="1" transform="matrix(1,0,0,1,0,0)"><path fill="rgb(155,155,155)" fill-opacity="1" d=" M4.989999771118164,-81.1719970703125 C4.989999771118164,-81.1719970703125 21.517000198364258,-91.15599822998047 21.517000198364258,-91.15599822998047 C21.517000198364258,-91.15599822998047 21.513999938964844,-91.49600219726562 21.513999938964844,-91.49600219726562 C21.513999938964844,-91.49600219726562 22.917999267578125,-92.00399780273438 22.917999267578125,-92.00399780273438 C22.917999267578125,-92.00399780273438 90.41400146484375,-113.1050033569336 90.41400146484375,-113.1050033569336 C90.41400146484375,-113.1050033569336 93.84500122070312,-116.5250015258789 93.84500122070312,-116.5250015258789 C93.84500122070312,-116.5250015258789 132.18600463867188,-111.94999694824219 132.18600463867188,-111.94999694824219 C132.18600463867188,-111.94999694824219 131.33999633789062,-28.857999801635742 131.33999633789062,-28.857999801635742 C131.33999633789062,-28.857999801635742 35.1510009765625,29.26300048828125 35.1510009765625,29.26300048828125 C35.1510009765625,29.26300048828125 35.14799880981445,29.145999908447266 35.14799880981445,29.145999908447266 C35.14799880981445,29.145999908447266 6.041999816894531,46.73699951171875 6.041999816894531,46.73699951171875 C6.041999816894531,46.73699951171875 4.989999771118164,-81.1719970703125 4.989999771118164,-81.1719970703125z"></path></g><g opacity="1" transform="matrix(1,0,0,1,0,0)"><path fill="rgb(69,69,69)" fill-opacity="1" d=" M6.067999839782715,50.042999267578125 C6.067999839782715,50.042999267578125 5.955999851226807,36.38800048828125 5.955999851226807,36.38800048828125 C5.955999851226807,36.38800048828125 -117.37799835205078,-28.14900016784668 -117.37799835205078,-28.14900016784668 C-117.37799835205078,-28.14900016784668 -117.33200073242188,-14.550000190734863 -117.33200073242188,-14.550000190734863 C-117.33200073242188,-14.550000190734863 6.067999839782715,50.042999267578125 6.067999839782715,50.042999267578125z"></path></g><g opacity="1" transform="matrix(1,0,0,1,0,0)"><path fill="rgb(69,69,69)" fill-opacity="1" d=" M6.067999839782715,50.042999267578125 C6.067999839782715,50.042999267578125 5.956999778747559,36.38800048828125 5.956999778747559,36.38800048828125 C5.956999778747559,36.38800048828125 131.45199584960938,-39.3650016784668 131.45199584960938,-39.3650016784668 C131.45199584960938,-39.3650016784668 131.34100341796875,-25.60099983215332 131.34100341796875,-25.60099983215332 C131.34100341796875,-25.60099983215332 6.067999839782715,50.042999267578125 6.067999839782715,50.042999267578125z"></path></g><g opacity="1" transform="matrix(1,0,0,1,0,0)"><path stroke-linecap="round" stroke-linejoin="round" fill-opacity="0" stroke="rgb(186,186,186)" stroke-opacity="1" stroke-width="2.875" d=" M23.384000778198242,-195.8179931640625 C23.384000778198242,-195.8179931640625 24.360000610351562,-130.8679962158203 24.360000610351562,-130.8679962158203"></path></g><g opacity="1" transform="matrix(1,0,0,1,0,0)"><path fill="rgb(69,69,69)" fill-opacity="1" d=" M37.814998626708984,-7.386000156402588 C37.814998626708984,-7.386000156402588 59.5,-20.48900032043457 59.5,-20.48900032043457 C59.5,-20.48900032043457 59.215999603271484,-54.847999572753906 59.215999603271484,-54.847999572753906 C59.215999603271484,-54.847999572753906 37.53300094604492,-41.744998931884766 37.53300094604492,-41.744998931884766 C37.53300094604492,-41.744998931884766 37.814998626708984,-7.386000156402588 37.814998626708984,-7.386000156402588z"></path></g><g opacity="1" transform="matrix(1,0,0,1,0,0)"><path fill="rgb(255,255,255)" fill-opacity="1" d=" M37.814998626708984,-7.386000156402588 C37.814998626708984,-7.386000156402588 37.53300094604492,-41.744998931884766 37.53300094604492,-41.744998931884766 C37.53300094604492,-41.744998931884766 55.43000030517578,-52.55799865722656 55.43000030517578,-52.55799865722656 C55.43000030517578,-52.55799865722656 55.71099853515625,-18.201000213623047 55.71099853515625,-18.201000213623047 C55.71099853515625,-18.201000213623047 37.814998626708984,-7.386000156402588 37.814998626708984,-7.386000156402588z"></path></g><g opacity="1" transform="matrix(1,0,0,1,0,0)"><path fill="rgb(185,250,255)" fill-opacity="1" d=" M37.77799987792969,-12.236000061035156 C37.77799987792969,-12.236000061035156 37.564998626708984,-38.17399978637695 37.564998626708984,-38.17399978637695 C37.564998626708984,-38.17399978637695 51.07500076293945,-46.3390007019043 51.07500076293945,-46.3390007019043 C51.07500076293945,-46.3390007019043 51.28900146484375,-20.400999069213867 51.28900146484375,-20.400999069213867 C51.28900146484375,-20.400999069213867 37.77799987792969,-12.236000061035156 37.77799987792969,-12.236000061035156z"></path></g><g opacity="1" transform="matrix(1,0,0,1,0,0)"><path fill="rgb(69,69,69)" fill-opacity="1" d=" M85.5199966430664,-35.30799865722656 C85.5199966430664,-35.30799865722656 107.2030029296875,-48.40999984741211 107.2030029296875,-48.40999984741211 C107.2030029296875,-48.40999984741211 106.9209976196289,-82.76899719238281 106.9209976196289,-82.76899719238281 C106.9209976196289,-82.76899719238281 85.23799896240234,-69.66699981689453 85.23799896240234,-69.66699981689453 C85.23799896240234,-69.66699981689453 85.5199966430664,-35.30799865722656 85.5199966430664,-35.30799865722656z"></path></g><g opacity="1" transform="matrix(1,0,0,1,0,0)"><path fill="rgb(255,255,255)" fill-opacity="1" d=" M85.5199966430664,-35.30699920654297 C85.5199966430664,-35.30699920654297 85.23799896240234,-69.66600036621094 85.23799896240234,-69.66600036621094 C85.23799896240234,-69.66600036621094 103.13500213623047,-80.47899627685547 103.13500213623047,-80.47899627685547 C103.13500213623047,-80.47899627685547 103.41600036621094,-46.12300109863281 103.41600036621094,-46.12300109863281 C103.41600036621094,-46.12300109863281 85.5199966430664,-35.30699920654297 85.5199966430664,-35.30699920654297z"></path></g><g opacity="1" transform="matrix(1,0,0,1,0,0)"><path fill="rgb(185,250,255)" fill-opacity="1" d=" M85.48100280761719,-40.15700149536133 C85.48100280761719,-40.15700149536133 85.26699829101562,-66.09600067138672 85.26699829101562,-66.09600067138672 C85.26699829101562,-66.09600067138672 98.77799987792969,-74.26100158691406 98.77799987792969,-74.26100158691406 C98.77799987792969,-74.26100158691406 98.99099731445312,-48.323001861572266 98.99099731445312,-48.323001861572266 C98.99099731445312,-48.323001861572266 85.48100280761719,-40.15700149536133 85.48100280761719,-40.15700149536133z"></path></g><g opacity="1" transform="matrix(1,0,0,1,0,0)"><path fill="rgb(69,69,69)" fill-opacity="1" d=" M-88.0979995727539,-40.27899932861328 C-88.0979995727539,-40.27899932861328 -109.98500061035156,-51.74300003051758 -109.98500061035156,-51.74300003051758 C-109.98500061035156,-51.74300003051758 -110.26699829101562,-86.10199737548828 -110.26699829101562,-86.10199737548828 C-110.26699829101562,-86.10199737548828 -88.38200378417969,-74.63800048828125 -88.38200378417969,-74.63800048828125 C-88.38200378417969,-74.63800048828125 -88.0979995727539,-40.27899932861328 -88.0979995727539,-40.27899932861328z"></path></g><g opacity="1" transform="matrix(1,0,0,1,0,0)"><path fill="rgb(255,255,255)" fill-opacity="1" d=" M-88.0979995727539,-40.27899932861328 C-88.0979995727539,-40.27899932861328 -88.38200378417969,-74.63800048828125 -88.38200378417969,-74.63800048828125 C-88.38200378417969,-74.63800048828125 -106.44400024414062,-84.0989990234375 -106.44400024414062,-84.0989990234375 C-106.44400024414062,-84.0989990234375 -106.16200256347656,-49.7400016784668 -106.16200256347656,-49.7400016784668 C-106.16200256347656,-49.7400016784668 -88.0979995727539,-40.27899932861328 -88.0979995727539,-40.27899932861328z"></path></g><g opacity="1" transform="matrix(1,0,0,1,0,0)"><path fill="rgb(185,250,255)" fill-opacity="1" d=" M-88.13999938964844,-45.12900161743164 C-88.13999938964844,-45.12900161743164 -88.35299682617188,-71.06700134277344 -88.35299682617188,-71.06700134277344 C-88.35299682617188,-71.06700134277344 -101.98999786376953,-78.21099853515625 -101.98999786376953,-78.21099853515625 C-101.98999786376953,-78.21099853515625 -101.7760009765625,-52.27299880981445 -101.7760009765625,-52.27299880981445 C-101.7760009765625,-52.27299880981445 -88.13999938964844,-45.12900161743164 -88.13999938964844,-45.12900161743164z"></path></g><g opacity="1" transform="matrix(1,0,0,1,0,0)"><path fill="rgb(69,69,69)" fill-opacity="1" d=" M-12.4399995803833,-4.3520002365112305 C-12.4399995803833,-4.3520002365112305 -34.32400131225586,-15.819000244140625 -34.32400131225586,-15.819000244140625 C-34.32400131225586,-15.819000244140625 -34.60599899291992,-50.178001403808594 -34.60599899291992,-50.178001403808594 C-34.60599899291992,-50.178001403808594 -12.722000122070312,-38.7130012512207 -12.722000122070312,-38.7130012512207 C-12.722000122070312,-38.7130012512207 -12.4399995803833,-4.3520002365112305 -12.4399995803833,-4.3520002365112305z"></path></g><g opacity="1" transform="matrix(1,0,0,1,0,0)"><path fill="rgb(255,255,255)" fill-opacity="1" d=" M-12.4399995803833,-4.3520002365112305 C-12.4399995803833,-4.3520002365112305 -12.722000122070312,-38.71099853515625 -12.722000122070312,-38.71099853515625 C-12.722000122070312,-38.71099853515625 -30.785999298095703,-48.17399978637695 -30.785999298095703,-48.17399978637695 C-30.785999298095703,-48.17399978637695 -30.50200080871582,-13.815999984741211 -30.50200080871582,-13.815999984741211 C-30.50200080871582,-13.815999984741211 -12.4399995803833,-4.3520002365112305 -12.4399995803833,-4.3520002365112305z"></path></g><g opacity="1" transform="matrix(1,0,0,1,0,0)"><path fill="rgb(185,250,255)" fill-opacity="1" d=" M-12.482000350952148,-9.204000473022461 C-12.482000350952148,-9.204000473022461 -12.694999694824219,-35.141998291015625 -12.694999694824219,-35.141998291015625 C-12.694999694824219,-35.141998291015625 -26.329999923706055,-42.284000396728516 -26.329999923706055,-42.284000396728516 C-26.329999923706055,-42.284000396728516 -26.118000030517578,-16.34600067138672 -26.118000030517578,-16.34600067138672 C-26.118000030517578,-16.34600067138672 -12.482000350952148,-9.204000473022461 -12.482000350952148,-9.204000473022461z"></path></g><g opacity="1" transform="matrix(1,0,0,1,0,0)"><path fill="rgb(69,69,69)" fill-opacity="1" d=" M-76.5770034790039,-71.5530014038086 C-76.5770034790039,-71.5530014038086 -76.02100372314453,-3.799999952316284 -76.02100372314453,-3.799999952316284 C-76.02100372314453,-3.799999952316284 -50.58599853515625,9.52400016784668 -50.58599853515625,9.52400016784668 C-50.58599853515625,9.52400016784668 -50.58599853515625,9.468000411987305 -50.58599853515625,9.468000411987305 C-50.58599853515625,9.468000411987305 -44.52199935913086,12.645000457763672 -44.52199935913086,12.645000457763672 C-44.52199935913086,12.645000457763672 -45.077999114990234,-55.108001708984375 -45.077999114990234,-55.108001708984375 C-45.077999114990234,-55.108001708984375 -76.5770034790039,-71.5530014038086 -76.5770034790039,-71.5530014038086z"></path></g><g opacity="1" transform="matrix(1,0,0,1,0,0)"><path fill="rgb(255,255,255)" fill-opacity="1" d=" M-67.31900024414062,0.7580000162124634 C-67.31900024414062,0.7580000162124634 -50.58599853515625,9.52400016784668 -50.58599853515625,9.52400016784668 C-50.58599853515625,9.52400016784668 -50.58599853515625,9.468000411987305 -50.58599853515625,9.468000411987305 C-50.58599853515625,9.468000411987305 -44.52199935913086,12.645000457763672 -44.52199935913086,12.645000457763672 C-44.52199935913086,12.645000457763672 -45.077999114990234,-55.108001708984375 -45.077999114990234,-55.108001708984375 C-45.077999114990234,-55.108001708984375 -67.875,-67.00900268554688 -67.875,-67.00900268554688 C-67.875,-67.00900268554688 -67.31900024414062,0.7580000162124634 -67.31900024414062,0.7580000162124634z"></path></g><g opacity="1" transform="matrix(1,0,0,1,0,0)"><path fill="rgb(185,250,255)" fill-opacity="1" d=" M-47.176998138427734,-33.98699951171875 C-47.176998138427734,-33.98699951171875 -62.249000549316406,-41.882999420166016 -62.249000549316406,-41.882999420166016 C-62.249000549316406,-41.882999420166016 -62.38199996948242,-58.1150016784668 -62.38199996948242,-58.1150016784668 C-62.38199996948242,-58.1150016784668 -47.310001373291016,-50.215999603271484 -47.310001373291016,-50.215999603271484 C-47.310001373291016,-50.215999603271484 -47.176998138427734,-33.98699951171875 -47.176998138427734,-33.98699951171875z"></path></g><g opacity="1" transform="matrix(1,0,0,1,0,0)"><path fill="rgb(248,231,28)" fill-opacity="1" d=" M-65.01499938964844,-27.000999450683594 C-65.61199951171875,-27.299999237060547 -66.1050033569336,-28.020000457763672 -66.11000061035156,-28.60099983215332 C-66.11000061035156,-28.60099983215332 -66.14900207519531,-33.26300048828125 -66.14900207519531,-33.26300048828125 C-66.15399932861328,-33.84400177001953 -65.66799926757812,-34.07500076293945 -65.07099914550781,-33.77799987792969 C-64.4729995727539,-33.479000091552734 -63.97999954223633,-32.7599983215332 -63.974998474121094,-32.17900085449219 C-63.974998474121094,-32.17900085449219 -63.93600082397461,-27.516000747680664 -63.93600082397461,-27.516000747680664 C-63.93199920654297,-26.933000564575195 -64.41699981689453,-26.70199966430664 -65.01499938964844,-27.000999450683594z"></path></g><g opacity="1" transform="matrix(1,0,0,1,0,0)"><path fill="rgb(69,69,69)" fill-opacity="1" d=" M-112.75900268554688,3.4809999465942383 C-112.75900268554688,3.4809999465942383 -112.65399932861328,16.344999313354492 -112.65399932861328,16.344999313354492 C-112.65399932861328,16.344999313354492 -50.659000396728516,48.823001861572266 -50.659000396728516,48.823001861572266 C-50.659000396728516,48.823001861572266 -24.740999221801758,33.1619987487793 -24.740999221801758,33.1619987487793 C-24.740999221801758,33.1619987487793 -24.84600067138672,20.29599952697754 -24.84600067138672,20.29599952697754 C-24.84600067138672,20.29599952697754 -112.75900268554688,3.4809999465942383 -112.75900268554688,3.4809999465942383z"></path></g><g opacity="1" transform="matrix(1,0,0,1,0,0)"><path fill="rgb(120,120,120)" fill-opacity="1" d=" M-24.84600067138672,20.295000076293945 C-24.84600067138672,20.295000076293945 -86.84100341796875,-12.180000305175781 -86.84100341796875,-12.180000305175781 C-86.84100341796875,-12.180000305175781 -112.75900268554688,3.4809999465942383 -112.75900268554688,3.4809999465942383 C-112.75900268554688,3.4809999465942383 -50.76599884033203,35.95800018310547 -50.76599884033203,35.95800018310547 C-50.76599884033203,35.95800018310547 -24.84600067138672,20.295000076293945 -24.84600067138672,20.295000076293945z"></path></g><g opacity="1" transform="matrix(1,0,0,1,0,0)"><path fill="url(#__lottie_element_154)" fill-opacity="1" d=" M57.92300033569336,-212.34800720214844 C57.92300033569336,-212.34800720214844 132.14599609375,-114.6729965209961 132.14599609375,-114.6729965209961 C132.14599609375,-114.6729965209961 6.656000137329102,-40.354000091552734 6.656000137329102,-40.354000091552734 C6.656000137329102,-40.354000091552734 -66.30400085449219,-141.52999877929688 -66.30400085449219,-141.52999877929688 C-66.30400085449219,-141.52999877929688 57.92300033569336,-212.34800720214844 57.92300033569336,-212.34800720214844z"></path></g><g opacity="1" transform="matrix(1,0,0,1,0,0)"><path fill="rgb(177,1,22)" fill-opacity="1" d=" M-66.30400085449219,-141.52999877929688 C-66.30400085449219,-141.52999877929688 -137.19000244140625,-109.69400024414062 -137.19000244140625,-109.69400024414062 C-137.19000244140625,-109.69400024414062 -105.60399627685547,-131.15699768066406 -105.60399627685547,-131.15699768066406 C-105.60399627685547,-131.15699768066406 11.1899995803833,-194.73399353027344 11.1899995803833,-194.73399353027344 C11.1899995803833,-194.73399353027344 57.92399978637695,-212.34800720214844 57.92399978637695,-212.34800720214844 C57.92399978637695,-212.34800720214844 -66.30400085449219,-141.52999877929688 -66.30400085449219,-141.52999877929688z"></path></g><g opacity="1" transform="matrix(1,0,0,1,0,0)"><path fill="rgb(255,255,255)" fill-opacity="1" d=" M132.14700317382812,-114.6729965209961 C132.14700317382812,-114.6729965209961 6.64900016784668,-40.361000061035156 6.64900016784668,-40.361000061035156 C6.64900016784668,-40.361000061035156 -66.30599975585938,-141.52999877929688 -66.30599975585938,-141.52999877929688 C-66.30599975585938,-141.52999877929688 -67.4209976196289,-136.9010009765625 -67.4209976196289,-136.9010009765625 C-67.4209976196289,-136.9010009765625 5.021999835968018,-38.15399932861328 5.021999835968018,-38.15399932861328 C5.914999961853027,-36.93600082397461 7.584000110626221,-36.590999603271484 8.88599967956543,-37.356998443603516 C8.88599967956543,-37.356998443603516 129.68899536132812,-108.38200378417969 129.68899536132812,-108.38200378417969 C131.23399353027344,-109.28800201416016 132.17300415039062,-110.95099639892578 132.15899658203125,-112.74500274658203 C132.15899658203125,-112.74500274658203 132.14700317382812,-114.6729965209961 132.14700317382812,-114.6729965209961z"></path></g><g opacity="1" transform="matrix(1,0,0,1,0,0)"><path fill="rgb(255,255,255)" fill-opacity="1" d=" M-66.2699966430664,-137.4340057373047 C-66.2699966430664,-137.4340057373047 -134.1909942626953,-107.74500274658203 -134.1909942626953,-107.74500274658203 C-135.60000610351562,-107.12999725341797 -137.18099975585938,-108.15299987792969 -137.1929931640625,-109.69400024414062 C-137.1929931640625,-109.69400024414062 -66.30699920654297,-141.52999877929688 -66.30699920654297,-141.52999877929688 C-66.30699920654297,-141.52999877929688 -66.2699966430664,-137.4340057373047 -66.2699966430664,-137.4340057373047z"></path></g><g opacity="1" transform="matrix(1,0,0,1,0,0)"><path stroke-linecap="round" stroke-linejoin="round" fill-opacity="0" stroke="rgb(255,255,255)" stroke-opacity="1" stroke-width="2.875" d=" M-66.88899993896484,-139.031005859375 C-66.88899993896484,-139.031005859375 2.3889999389648438,-180.23899841308594 2.3889999389648438,-180.23899841308594"></path></g></g><g style="display: block;" transform="matrix(0.8263054490089417,0,0,0.8263054490089417,453.4012451171875,446.4281005859375)" opacity="1"><g opacity="1" transform="matrix(1,0,0,1,0,0)"><path fill="rgb(215,215,215)" fill-opacity="1" d=" M123.21199798583984,28.305999755859375 C137.67999267578125,28.305999755859375 149.40899658203125,22.003000259399414 149.40899658203125,14.227999687194824 C149.40899658203125,6.453000068664551 137.67999267578125,0.15000000596046448 123.21199798583984,0.15000000596046448 C108.74400329589844,0.15000000596046448 97.01499938964844,6.453000068664551 97.01499938964844,14.227999687194824 C97.01499938964844,22.003000259399414 108.74400329589844,28.305999755859375 123.21199798583984,28.305999755859375z"></path></g></g><g style="display: block;" transform="matrix(1,0,0,1,432,433.98919677734375)" opacity="1"><g opacity="1" transform="matrix(1,0,0,1,0,0)"><path fill="rgb(69,69,69)" fill-opacity="1" d=" M123.21199798583984,15.862000465393066 C121.81099700927734,15.862000465393066 120.66200256347656,14.71399974822998 120.66200256347656,13.309000015258789 C120.66200256347656,13.309000015258789 120.66200256347656,-22.722000122070312 120.66200256347656,-22.722000122070312 C120.66200256347656,-24.125 121.80799865722656,-25.274999618530273 123.21199798583984,-25.274999618530273 C124.61299896240234,-25.274999618530273 125.76200103759766,-24.12700080871582 125.76200103759766,-22.722000122070312 C125.76200103759766,-22.722000122070312 125.76200103759766,13.309000015258789 125.76200103759766,13.309000015258789 C125.76000213623047,14.71399974822998 124.61299896240234,15.862000465393066 123.21199798583984,15.862000465393066z"></path></g><g opacity="1" transform="matrix(1,0,0,1,0,0)"><path fill="rgb(126,211,33)" fill-opacity="1" d=" M146.3350067138672,-57.66899871826172 C146.51699829101562,-59.03799819946289 146.61199951171875,-60.441001892089844 146.61199951171875,-61.86800003051758 C146.61199951171875,-68.38500213623047 144.64199829101562,-74.36499786376953 141.35899353027344,-79.052001953125 C141.80999755859375,-80.93399810791016 142.05799865722656,-82.91500091552734 142.05799865722656,-84.96600341796875 C142.05799865722656,-97.0770034790039 133.61900329589844,-106.89600372314453 123.20999908447266,-106.89600372314453 C112.8010025024414,-106.89600372314453 104.36100006103516,-97.0770034790039 104.36100006103516,-84.96600341796875 C104.36100006103516,-82.91699981689453 104.60900115966797,-80.93599700927734 105.06099700927734,-79.052001953125 C101.77999877929688,-74.36499786376953 99.80799865722656,-68.38500213623047 99.80799865722656,-61.86800003051758 C99.80799865722656,-60.441001892089844 99.9020004272461,-59.03799819946289 100.08399963378906,-57.66899871826172 C94.33100128173828,-52.75600051879883 90.77799987792969,-46.02000045776367 90.77799987792969,-38.58700180053711 C90.77799987792969,-23.548999786376953 105.29900360107422,-11.359999656677246 123.20999908447266,-11.359999656677246 C141.12100219726562,-11.359999656677246 155.64100646972656,-23.551000595092773 155.64100646972656,-38.58700180053711 C155.64100646972656,-46.02000045776367 152.08799743652344,-52.75400161743164 146.3350067138672,-57.66899871826172z"></path></g><g opacity="1" transform="matrix(1,0,0,1,0,0)"><path fill="rgb(65,117,5)" fill-opacity="1" d=" M146.3350067138672,-57.66899871826172 C146.51699829101562,-59.03799819946289 146.61099243164062,-60.441001892089844 146.61099243164062,-61.86800003051758 C146.61099243164062,-68.38500213623047 144.64199829101562,-74.36499786376953 141.35800170898438,-79.052001953125 C141.80999755859375,-80.93399810791016 142.05799865722656,-82.91500091552734 142.05799865722656,-84.96600341796875 C142.05799865722656,-94.0999984741211 137.2570037841797,-101.927001953125 130.4320068359375,-105.22599792480469 C123.20899963378906,-60.141998291015625 144.12899780273438,-39.65399932861328 112.677001953125,-12.838000297546387 C115.9800033569336,-11.885000228881836 119.5199966430664,-11.362000465393066 123.20899963378906,-11.362000465393066 C141.1199951171875,-11.362000465393066 155.64100646972656,-23.554000854492188 155.64100646972656,-38.5890007019043 C155.64100646972656,-46.02000045776367 152.08799743652344,-52.75400161743164 146.3350067138672,-57.66899871826172z"></path></g></g><g style="display: block;" transform="matrix(0.8306810259819031,0,0,0.8306810259819031,436.07025146484375,421.3447570800781)" opacity="1"><g opacity="1" transform="matrix(1,0,0,1,0,0)"><path fill="rgb(112,1,14)" fill-opacity="1" d=" M37.10100173950195,-127.49099731445312 C39.82500076293945,-133.37899780273438 36.18600082397461,-140.86300659179688 28.972999572753906,-144.20799255371094 C21.759000778198242,-147.552001953125 13.70300006866455,-145.49099731445312 10.977999687194824,-139.60299682617188 C8.253000259399414,-133.71499633789062 11.892999649047852,-126.23100280761719 19.106000900268555,-122.88600158691406 C26.31999969482422,-119.54199981689453 34.375999450683594,-121.60299682617188 37.10100173950195,-127.49099731445312z"></path></g></g><g style="display: block;" transform="matrix(1,0,0,1,432,433.9927978515625)" opacity="1"><g opacity="1" transform="matrix(1,0,0,1,0,0)"><path fill="rgb(155,155,155)" fill-opacity="1" d=" M15.409000396728516,-245.76100158691406 C2.619999885559082,-238.38099670410156 -7.752999782562256,-220.42100524902344 -7.763000011444092,-205.64599609375 C-7.771999835968018,-190.87100219726562 2.5880000591278076,-184.87600708007812 15.375,-192.25599670410156 C28.163999557495117,-199.63600158691406 38.5359992980957,-217.5970001220703 38.54600143432617,-232.3719940185547 C38.54800033569336,-235.46200561523438 39.05500030517578,-242.45899963378906 38.22200012207031,-244.73899841308594 C38.22200012207031,-244.73899841308594 37.02799987792969,-245.4499969482422 33.44499969482422,-247.1280059814453 C28.06999969482422,-248.9199981689453 21.739999771118164,-249.4149932861328 15.409000396728516,-245.76100158691406z M18.871999740600586,-226.18800354003906 C18.211000442504883,-228.3979949951172 18.770000457763672,-231.63800048828125 20.542999267578125,-234.70799255371094 C22.36400032043457,-237.86099243164062 24.979999542236328,-239.99000549316406 27.26799964904785,-240.44700622558594 C28.549999237060547,-235.61199951171875 22.350000381469727,-226.5989990234375 18.871999740600586,-226.18800354003906z"></path></g><g opacity="1" transform="matrix(1,0,0,1,0,0)"><path fill="rgb(155,155,155)" fill-opacity="1" d=" M23.384000778198242,-130.0970001220703 C23.384000778198242,-130.0970001220703 24.027999877929688,-223.99200439453125 24.027999877929688,-223.99200439453125 C24.027999877929688,-223.99200439453125 6.75600004196167,-214.02499389648438 6.75600004196167,-214.02499389648438 C6.75600004196167,-214.02499389648438 6.714000225067139,-147.58299255371094 6.714000225067139,-147.58299255371094 C6.714000225067139,-147.58299255371094 13.484999656677246,-136.44000244140625 13.484999656677246,-136.44000244140625 C13.484999656677246,-136.44000244140625 23.384000778198242,-130.0970001220703 23.384000778198242,-130.0970001220703z"></path></g><g opacity="1" transform="matrix(1,0,0,1,0,0)"><path fill="rgb(192,192,192)" fill-opacity="1" d=" M32.018001556396484,-134.13800048828125 C32.018001556396484,-134.13800048828125 32.07400131225586,-220.69400024414062 32.07400131225586,-220.69400024414062 C32.07400131225586,-220.69400024414062 14.802000045776367,-210.7270050048828 14.802000045776367,-210.7270050048828 C14.802000045776367,-210.7270050048828 14.760000228881836,-144.28399658203125 14.760000228881836,-144.28399658203125 C14.760000228881836,-144.28399658203125 23.384000778198242,-130.0970001220703 23.384000778198242,-130.0970001220703 C23.384000778198242,-130.0970001220703 32.018001556396484,-134.13800048828125 32.018001556396484,-134.13800048828125z"></path></g><g opacity="1" transform="matrix(1,0,0,1,0,0)"><path fill="rgb(192,192,192)" fill-opacity="1" d=" M23.454999923706055,-242.46299743652344 C10.666000366210938,-235.08299255371094 0.2930000126361847,-217.1219940185547 0.2840000092983246,-202.3470001220703 C0.27399998903274536,-187.57200622558594 10.633999824523926,-181.57699584960938 23.42099952697754,-188.95799255371094 C36.209999084472656,-196.33799743652344 46.582000732421875,-214.29800415039062 46.59199905395508,-229.072998046875 C46.60200119018555,-243.84800720214844 36.24100112915039,-249.84300231933594 23.454999923706055,-242.46299743652344z M29.851999282836914,-229.31900024414062 C27.273000717163086,-224.85299682617188 23.097999572753906,-222.43899536132812 20.525999069213867,-223.927001953125 C17.95400047302246,-225.4149932861328 17.961000442504883,-230.24000549316406 20.541000366210938,-234.70599365234375 C23.1200008392334,-239.1719970703125 27.29400062561035,-241.5850067138672 29.865999221801758,-240.0970001220703 C32.4379997253418,-238.60899353027344 32.430999755859375,-233.78500366210938 29.851999282836914,-229.31900024414062z"></path></g><g opacity="1" transform="matrix(1,0,0,1,0,0)"><path fill="rgb(192,192,192)" fill-opacity="1" d=" M31.659000396728516,-237.26800537109375 C32.07899856567383,-235.0919952392578 31.479000091552734,-232.13400268554688 29.851999282836914,-229.31900024414062 C27.273000717163086,-224.85299682617188 23.097999572753906,-222.43899536132812 20.525999069213867,-223.927001953125 C18.844999313354492,-224.8990020751953 18.274999618530273,-227.30099487304688 18.79400062561035,-230.0919952392578 C12.770999908447266,-223.79299926757812 8.519000053405762,-214.52099609375 8.513999938964844,-206.5500030517578 C8.506999969482422,-196.05299377441406 15.868000030517578,-191.7949981689453 24.952999114990234,-197.03599548339844 C34.03900146484375,-202.27999877929688 41.409000396728516,-215.03900146484375 41.41699981689453,-225.53599548339844 C41.422000885009766,-233.28599548339844 37.4119987487793,-237.6300048828125 31.659000396728516,-237.26800537109375z"></path></g><g opacity="1" transform="matrix(1,0,0,1,0,0)"><path stroke-linecap="round" stroke-linejoin="round" fill-opacity="0" stroke="rgb(192,192,192)" stroke-opacity="1" stroke-width="2" d=" M14.07800006866455,-223.99200439453125 C10.668000221252441,-218.54400634765625 8.515999794006348,-212.218994140625 8.513999938964844,-206.5500030517578 C8.506999969482422,-196.05299377441406 15.868000030517578,-191.7949981689453 24.952999114990234,-197.03599548339844 C34.03900146484375,-202.2790069580078 41.409000396728516,-215.03900146484375 41.41699981689453,-225.53599548339844 C41.41899871826172,-228.74200439453125 40.731998443603516,-231.3679962158203 39.52000045776367,-233.31500244140625"></path></g><g opacity="1" transform="matrix(1,0,0,1,0,0)"><path stroke-linecap="round" stroke-linejoin="round" fill-opacity="0" stroke="rgb(192,192,192)" stroke-opacity="1" stroke-width="2" d=" M27.42099952697754,-197.9010009765625 C27.42099952697754,-197.9010009765625 28.39699935913086,-132.9510040283203 28.39699935913086,-132.9510040283203"></path></g></g><g style="display: block;" transform="matrix(1,0,0,1,432,443.956787109375)" opacity="1"><g opacity="1" transform="matrix(1,0,0,1,0,0)"><path fill="rgb(255,201,152)" fill-opacity="1" d=" M-162.78799438476562,2.2820000648498535 C-162.78799438476562,2.2820000648498535 -153.93600463867188,16.972000122070312 -152.99600219726562,26.250999450683594 C-152.99600219726562,26.250999450683594 -155.1230010986328,31.429000854492188 -156.9739990234375,26.965999603271484 C-161.49099731445312,16.072999954223633 -164.67999267578125,6.7230000495910645 -168.11599731445312,3.0820000171661377 C-171.5500030517578,-0.5600000023841858 -162.78799438476562,2.2820000648498535 -162.78799438476562,2.2820000648498535z"></path></g><g opacity="0.16" transform="matrix(1,0,0,1,0,0)"><path fill="rgb(80,85,92)" fill-opacity="1" d=" M-172.5399932861328,96.81999969482422 C-163.6529998779297,96.30699920654297 -156.65499877929688,92.30899810791016 -156.91000366210938,87.88999938964844 C-157.16400146484375,83.47100067138672 -164.5749969482422,80.30500030517578 -173.46200561523438,80.81800079345703 C-182.3489990234375,81.33100128173828 -189.3470001220703,85.3290023803711 -189.0919952392578,89.74800109863281 C-188.83799743652344,94.16699981689453 -181.427001953125,97.33300018310547 -172.5399932861328,96.81999969482422z"></path></g><g opacity="1" transform="matrix(1,0,0,1,0,0)"><path fill="rgb(69,69,69)" fill-opacity="1" d=" M-177.69400024414062,92.5739974975586 C-177.69400024414062,92.5739974975586 -181.14500427246094,85.41799926757812 -181.14500427246094,85.41799926757812 C-181.70599365234375,84.80999755859375 -183.22000122070312,84.3479995727539 -184.33399963378906,84.3499984741211 C-184.8350067138672,84.3499984741211 -185.3350067138672,84.78600311279297 -185.53399658203125,85.36900329589844 C-185.53399658203125,85.36900329589844 -185.96400451660156,86.63300323486328 -185.96400451660156,86.63300323486328 C-186.63699340820312,88.44200134277344 -186.5760040283203,88.72899627685547 -185.8350067138672,89.52799987792969 C-185.8350067138672,89.52799987792969 -181.43699645996094,94.28299713134766 -181.43699645996094,94.28299713134766 C-180.6959991455078,95.08300018310547 -179.3090057373047,95.38200378417969 -178.35299682617188,94.9469985961914 C-178.35299682617188,94.9469985961914 -178.08299255371094,94.822998046875 -178.08299255371094,94.822998046875 C-177.13099670410156,94.38800048828125 -176.95399475097656,93.37699890136719 -177.69400024414062,92.5739974975586z"></path></g><g opacity="1" transform="matrix(1,0,0,1,0,0)"><path fill="rgb(255,255,255)" fill-opacity="1" d=" M-185.6510009765625,85.43199920654297 C-185.5800018310547,87.16100311279297 -181.2550048828125,87.46499633789062 -181.3260040283203,85.73600006103516 C-181.3260040283203,85.73600006103516 -181.55099487304688,80.11799621582031 -181.55099487304688,80.11799621582031 C-181.55099487304688,80.11799621582031 -185.8769989013672,79.81400299072266 -185.8769989013672,79.81400299072266 C-185.8769989013672,79.81400299072266 -185.6510009765625,85.43199920654297 -185.6510009765625,85.43199920654297z"></path></g><g opacity="1" transform="matrix(1,0,0,1,0,0)"><path fill="rgb(69,69,69)" fill-opacity="1" d=" M-161.53900146484375,85.45899963378906 C-161.53900146484375,85.45899963378906 -168.83200073242188,80.66300201416016 -168.83200073242188,80.66300201416016 C-169.76300048828125,80.33999633789062 -170.88499450683594,80.25700378417969 -172.177001953125,80.60700225830078 C-172.7570037841797,80.76499938964844 -172.85400390625,80.33000183105469 -172.8179931640625,80.87200164794922 C-172.8179931640625,80.87200164794922 -173.2740020751953,82.64900207519531 -173.2740020751953,82.64900207519531 C-173.83299255371094,84.1760025024414 -172.38800048828125,85.54199981689453 -170.6439971923828,86.10800170898438 C-170.6439971923828,86.10800170898438 -165.09500122070312,88.03399658203125 -165.09500122070312,88.03399658203125 C-163.8679962158203,88.45899963378906 -162.1219940185547,88.26899719238281 -161.21400451660156,87.61299896240234 C-161.21400451660156,87.61299896240234 -160.95700073242188,87.4260025024414 -160.95700073242188,87.4260025024414 C-160.04800415039062,86.77200317382812 -160.31100463867188,85.88500213623047 -161.53900146484375,85.45899963378906z"></path></g><g opacity="1" transform="matrix(1,0,0,1,0,0)"><path fill="rgb(255,255,255)" fill-opacity="1" d=" M-172.79600524902344,81.29000091552734 C-172.73300170898438,83.0739974975586 -168.3979949951172,82.91600036621094 -168.46099853515625,81.13500213623047 C-168.46099853515625,81.13500213623047 -168.6699981689453,75.33899688720703 -168.6699981689453,75.33899688720703 C-168.6699981689453,75.33899688720703 -173.0050048828125,75.49500274658203 -173.0050048828125,75.49500274658203 C-173.0050048828125,75.49500274658203 -172.79600524902344,81.29000091552734 -172.79600524902344,81.29000091552734z"></path></g><g opacity="1" transform="matrix(1,0,0,1,0,0)"><path fill="rgb(80,85,92)" fill-opacity="1" d=" M-173.61900329589844,79.56900024414062 C-171.85899353027344,80.74299621582031 -169.05099487304688,80.61399841308594 -168.18600463867188,79.14399719238281 C-165.88900756835938,61.26900100708008 -165.37899780273438,43.14099884033203 -166.51100158691406,24.78499984741211 C-166.51100158691406,24.78499984741211 -180.177001953125,21.224000930786133 -180.177001953125,21.224000930786133 C-176.6790008544922,43.185001373291016 -172.83999633789062,62.590999603271484 -173.61900329589844,79.56900024414062z"></path></g><g opacity="1" transform="matrix(1,0,0,1,0,0)"><path fill="rgb(80,85,92)" fill-opacity="1" d=" M-186.65899658203125,82.16799926757812 C-185.35899353027344,84.23899841308594 -181.69400024414062,84.05400085449219 -180.73800659179688,82.69499969482422 C-180.73800659179688,82.69499969482422 -173.6510009765625,23.93000030517578 -173.6510009765625,23.93000030517578 C-173.6510009765625,23.93000030517578 -188.11300659179688,23.356000900268555 -188.11300659179688,23.356000900268555 C-188.11300659179688,23.356000900268555 -186.65899658203125,82.16799926757812 -186.65899658203125,82.16799926757812z"></path></g><g opacity="1" transform="matrix(1,0,0,1,0,0)"><path fill="rgb(80,85,92)" fill-opacity="1" d=" M-176.6179962158203,44.2760009765625 C-176.6179962158203,44.2760009765625 -175.43099975585938,49.69300079345703 -175.43099975585938,49.69300079345703 C-175.43099975585938,49.69300079345703 -172.72000122070312,33.237998962402344 -172.72000122070312,33.237998962402344 C-173.37899780273438,33.465999603271484 -173.4199981689453,32.64400100708008 -174.16299438476562,32.80500030517578 C-174.16299438476562,32.80500030517578 -176.6179962158203,44.2760009765625 -176.6179962158203,44.2760009765625z"></path></g><g opacity="1" transform="matrix(1,0,0,1,0,0)"><path fill="rgb(255,201,152)" fill-opacity="1" d=" M-185.4949951171875,9.11299991607666 C-188.57899475097656,13.045999526977539 -190.10699462890625,14.956999778747559 -192.447998046875,20.2810001373291 C-193.97999572753906,23.763999938964844 -193.14500427246094,26.695999145507812 -191.6510009765625,28.509000778198242 C-189.60699462890625,30.98699951171875 -187.25799560546875,33.77199935913086 -187.25799560546875,33.77199935913086 C-187.25799560546875,33.77199935913086 -189.6790008544922,36.143001556396484 -189.6790008544922,36.143001556396484 C-189.6790008544922,36.143001556396484 -199.072998046875,28.663000106811523 -197.8780059814453,21.44300079345703 C-197.8780059814453,21.44300079345703 -193.11300659179688,4.275000095367432 -193.11300659179688,4.275000095367432 C-193.11300659179688,4.275000095367432 -185.4949951171875,9.11299991607666 -185.4949951171875,9.11299991607666z"></path></g><g opacity="1" transform="matrix(1,0,0,1,0,0)"><path fill="rgb(255,201,152)" fill-opacity="1" d=" M-189.39999389648438,34.49399948120117 C-189.39999389648438,34.49399948120117 -189.00900268554688,34.097999572753906 -189.00900268554688,34.097999572753906 C-188.29100036621094,33.36899948120117 -187.04200744628906,33.42499923706055 -186.23399353027344,34.220001220703125 C-186.23399353027344,34.220001220703125 -184.5800018310547,35.85300064086914 -184.5800018310547,35.85300064086914 C-183.7729949951172,36.6510009765625 -183.7030029296875,37.89799880981445 -184.4219970703125,38.62699890136719 C-184.4219970703125,38.62699890136719 -184.81300354003906,39.02299880981445 -184.81300354003906,39.02299880981445 C-185.53199768066406,39.75299835205078 -186.78199768066406,39.696998596191406 -187.58900451660156,38.902000427246094 C-187.58900451660156,38.902000427246094 -189.2429962158203,37.268001556396484 -189.2429962158203,37.268001556396484 C-190.05099487304688,36.472999572753906 -190.1219940185547,35.2239990234375 -189.39999389648438,34.49399948120117z"></path></g><g opacity="1" transform="matrix(1,0,0,1,0,0)"><path fill="rgb(199,243,255)" fill-opacity="1" d=" M-167.15199279785156,-7.309999942779541 C-162.61099243164062,-0.5740000009536743 -158.23699951171875,6.210000038146973 -157.60299682617188,10.904999732971191 C-158.58900451660156,14.88599967956543 -159.7550048828125,12.737000465393066 -162.4720001220703,13.812000274658203 C-162.4720001220703,13.812000274658203 -171.23199462890625,-0.3630000054836273 -171.23199462890625,-0.3630000054836273 C-171.23199462890625,-0.3630000054836273 -169.11399841308594,-4.230000019073486 -169.11399841308594,-4.230000019073486 C-169.11399841308594,-4.230000019073486 -167.15199279785156,-7.309999942779541 -167.15199279785156,-7.309999942779541z"></path></g><g opacity="1" transform="matrix(1,0,0,1,0,0)"><path fill="rgb(188,231,243)" fill-opacity="1" d=" M-165.50999450683594,25.650999069213867 C-165.54200744628906,18.825000762939453 -165.58799743652344,12.491999626159668 -164.61399841308594,3.9839999675750732 C-164.6699981689453,-7.791999816894531 -169.13600158691406,-12.128999710083008 -176.53399658203125,-9.38599967956543 C-176.53399658203125,-9.38599967956543 -179.59100341796875,-8.557999610900879 -179.59100341796875,-8.557999610900879 C-188.51400756835938,-3.690999984741211 -193.05799865722656,-3.9119999408721924 -191.41099548339844,5.557000160217285 C-191.41099548339844,5.557000160217285 -189.7449951171875,26.319000244140625 -189.7449951171875,26.319000244140625 C-189.69400024414062,37.01300048828125 -164.87899780273438,38.21900177001953 -165.50999450683594,25.650999069213867z"></path></g><g opacity="1" transform="matrix(1,0,0,1,0,0)"><path fill="rgb(199,243,255)" fill-opacity="1" d=" M-185.5189971923828,8.383999824523926 C-185.5189971923828,8.383999824523926 -189.30099487304688,24.433000564575195 -189.30099487304688,24.433000564575195 C-189.30099487304688,24.433000564575195 -189.7550048828125,25.993000030517578 -189.7550048828125,25.993000030517578 C-189.7550048828125,25.993000030517578 -190.35699462890625,18.270000457763672 -190.35699462890625,18.270000457763672 C-190.35699462890625,18.270000457763672 -185.5189971923828,8.383999824523926 -185.5189971923828,8.383999824523926z"></path></g><g opacity="1" transform="matrix(1,0,0,1,0,0)"><path fill="rgb(199,243,255)" fill-opacity="1" d=" M-184.81300354003906,6.494999885559082 C-184.81300354003906,6.494999885559082 -192.63999938964844,22.750999450683594 -192.63999938964844,22.750999450683594 C-193.2689971923828,23.738000869750977 -198.20899963378906,22.405000686645508 -198.21400451660156,20.70400047302246 C-198.2209930419922,17.142000198364258 -193.31500244140625,-1.5269999504089355 -188.093994140625,-4.02400016784668 C-183.8509979248047,-6.053999900817871 -182.49099731445312,0.7070000171661377 -184.81300354003906,6.494999885559082z"></path></g><g opacity="1" transform="matrix(1,0,0,1,0,0)"><path fill="rgb(255,201,152)" fill-opacity="1" d=" M-155.031005859375,32.430999755859375 C-153.98399353027344,32.0880012512207 -153.40899658203125,30.947999954223633 -153.75100708007812,29.899999618530273 C-153.75100708007812,29.899999618530273 -155.22500610351562,25.391000747680664 -155.22500610351562,25.391000747680664 C-155.5679931640625,24.34000015258789 -156.70700073242188,23.763999938964844 -157.75399780273438,24.10700035095215 C-158.8000030517578,24.450000762939453 -159.37600708007812,25.59000015258789 -159.0330047607422,26.63800048828125 C-159.0330047607422,26.63800048828125 -157.5590057373047,31.14699935913086 -157.5590057373047,31.14699935913086 C-157.2169952392578,32.196998596191406 -156.0780029296875,32.77299880981445 -155.031005859375,32.430999755859375z"></path></g><g opacity="1" transform="matrix(1,0,0,1,0,0)"><path fill="rgb(255,201,152)" fill-opacity="1" d=" M-153.1699981689453,29.166000366210938 C-152.14999389648438,28.74799919128418 -151.65699768066406,27.570999145507812 -152.0749969482422,26.549999237060547 C-152.0749969482422,26.549999237060547 -153.8699951171875,22.156999588012695 -153.8699951171875,22.156999588012695 C-154.28799438476562,21.13599967956543 -155.46299743652344,20.64299964904785 -156.48599243164062,21.06100082397461 C-157.50599670410156,21.479000091552734 -157.99899291992188,22.6560001373291 -157.58099365234375,23.677000045776367 C-157.58099365234375,23.677000045776367 -155.78599548339844,28.06999969482422 -155.78599548339844,28.06999969482422 C-155.3679962158203,29.090999603271484 -154.1929931640625,29.583999633789062 -153.1699981689453,29.166000366210938z"></path></g><g opacity="1" transform="matrix(1,0,0,1,0,0)"><path fill="rgb(222,229,255)" fill-opacity="1" d=" M-154.08399963378906,28.878999710083008 C-154.08399963378906,28.878999710083008 -157.70899963378906,30.687000274658203 -157.70899963378906,30.687000274658203 C-157.70899963378906,30.687000274658203 -156.76199340820312,32.691001892089844 -156.76199340820312,32.691001892089844 C-156.76199340820312,32.691001892089844 -152.8979949951172,30.4689998626709 -152.8979949951172,30.4689998626709 C-152.8979949951172,30.4689998626709 -154.08399963378906,28.878999710083008 -154.08399963378906,28.878999710083008z"></path></g><g opacity="1" transform="matrix(1,0,0,1,0,0)"><path fill="rgb(0,91,255)" fill-opacity="1" d=" M-131.5469970703125,29.889999389648438 C-131.5469970703125,29.889999389648438 -136.2310028076172,47.16999816894531 -145.49600219726562,43.60100173950195 C-153.052001953125,40.68899917602539 -157.3159942626953,32.608001708984375 -157.3159942626953,32.608001708984375 C-157.3159942626953,32.608001708984375 -152.37899780273438,30.214000701904297 -152.37899780273438,30.214000701904297 C-152.37899780273438,30.214000701904297 -145.1999969482422,36.858001708984375 -142.94200134277344,36.393001556396484 C-137.81500244140625,35.3380012512207 -138.30999755859375,24.027000427246094 -134.77200317382812,23.05900001525879 C-132.75599670410156,22.507999420166016 -131.5469970703125,29.889999389648438 -131.5469970703125,29.889999389648438z"></path></g><g opacity="1" transform="matrix(1,0,0,1,0,0)"><path fill="rgb(255,255,255)" fill-opacity="1" d=" M-193,20.9060001373291 C-193,20.9060001373291 -191.71499633789062,21.7810001373291 -192.3000030517578,23.106000900268555 C-192.88600158691406,24.43000030517578 -199.38900756835938,23.834999084472656 -198.99099731445312,21.73200035095215 C-198.59300231933594,19.624000549316406 -198.2449951171875,18.709999084472656 -193,20.9060001373291z"></path></g><g opacity="1" transform="matrix(1,0,0,1,0,0)"><path fill="rgb(255,255,255)" fill-opacity="1" d=" M-161.1699981689453,14.793999671936035 C-162.16099548339844,15.04699993133545 -163.2010040283203,14.446000099182129 -163.41900634765625,13.444999694824219 C-163.4219970703125,13.430000305175781 -163.42599487304688,13.416000366210938 -163.4290008544922,13.404000282287598 C-163.72300720214844,11.986000061035156 -158.08599853515625,8.6850004196167 -157.18699645996094,10.630000114440918 C-156.34500122070312,12.454999923706055 -156.54400634765625,13.609999656677246 -161.1699981689453,14.793999671936035z"></path></g><g opacity="1" transform="matrix(1,0,0,1,0,0)"><path fill="rgb(69,69,69)" fill-opacity="1" d=" M-174.8730010986328,-8.956000328063965 C-174.8730010986328,-8.956000328063965 -175.843994140625,-7.691999912261963 -176.40499877929688,-7.4710001945495605 C-176.96600341796875,-7.25 -184.10400390625,-11.244000434875488 -182.8090057373047,-17.31599998474121 C-181.98800659179688,-21.16200065612793 -174.7100067138672,-19.509000778198242 -174.7100067138672,-19.509000778198242 C-174.7100067138672,-19.509000778198242 -174.8730010986328,-8.956000328063965 -174.8730010986328,-8.956000328063965z"></path></g><g opacity="1" transform="matrix(1,0,0,1,0,0)"><path fill="rgb(255,201,152)" fill-opacity="1" d=" M-178.67300415039062,-3.631999969482422 C-178.67300415039062,-3.631999969482422 -180.26400756835938,-5.446000099182129 -180.26400756835938,-5.446000099182129 C-179.07899475097656,-5.158999919891357 -175.8800048828125,-4.640999794006348 -175.593994140625,-5.828000068664551 C-175.593994140625,-5.828000068664551 -174.03199768066406,-11.86400032043457 -174.03199768066406,-11.86400032043457 C-173.74600219726562,-13.050000190734863 -174.47900390625,-14.253000259399414 -175.66400146484375,-14.539999961853027 C-175.66400146484375,-14.539999961853027 -176.01400756835938,-14.625 -176.01400756835938,-14.625 C-177.19900512695312,-14.911999702453613 -178.4010009765625,-14.178000450134277 -178.68800354003906,-12.991999626159668 C-178.68800354003906,-12.991999626159668 -181.18699645996094,-6.797999858856201 -181.18699645996094,-6.797999858856201 C-181.4739990234375,-5.613999843597412 -179.85899353027344,-3.9189999103546143 -178.67300415039062,-3.631999969482422z"></path></g><g opacity="1" transform="matrix(1,0,0,1,0,0)"><path fill="rgb(236,167,56)" fill-opacity="1" d=" M-174.9040069580078,-8.255999565124512 C-174.9040069580078,-8.255999565124512 -177.81100463867188,-8.395000457763672 -179.50900268554688,-11.312000274658203 C-179.50900268554688,-11.312000274658203 -177.97900390625,-6.935999870300293 -175.3560028076172,-6.388999938964844 C-175.3560028076172,-6.388999938964844 -174.9040069580078,-8.255999565124512 -174.9040069580078,-8.255999565124512z"></path></g><g opacity="1" transform="matrix(1,0,0,1,0,0)"><path fill="rgb(80,85,92)" fill-opacity="1" d=" M-187.41400146484375,41.10200119018555 C-187.41400146484375,41.10200119018555 -184.07200622558594,34.69900131225586 -184.04299926757812,34.058998107910156 C-184.04299926757812,34.058998107910156 -182.56700134277344,37.28499984741211 -183.85899353027344,39.152000427246094 C-185.1529998779297,41.01900100708008 -187.41400146484375,41.10200119018555 -187.41400146484375,41.10200119018555z"></path></g><g opacity="1" transform="matrix(1,0,0,1,0,0)"><path fill="rgb(1,83,231)" fill-opacity="1" d=" M-112.13500213623047,21.094999313354492 C-108.38500213623047,27.253000259399414 -107.06900024414062,31.534000396728516 -105.75,38.53499984741211 C-105.46600341796875,40.04399871826172 -105.36900329589844,40.941001892089844 -105.81800079345703,42.393001556396484 C-107.31600189208984,47.224998474121094 -108.84400177001953,47.400001525878906 -109.59700012207031,52.465999603271484 C-109.97599792480469,55.020999908447266 -113.13999938964844,53.654998779296875 -112.75599670410156,51.07400131225586 C-112.05699920654297,46.367000579833984 -112.01100158691406,47.323001861572266 -110.34500122070312,42.85900115966797 C-110.03199768066406,42.018001556396484 -109.69200134277344,41.18899917602539 -109.33699798583984,40.3650016784668 C-109.66000366210938,41.12099838256836 -109.28399658203125,41.70000076293945 -109.41500091552734,41.00899887084961 C-109.49500274658203,40.57899856567383 -109.56800079345703,40.14400100708008 -109.64800262451172,39.7140007019043 C-110.90299987792969,32.970001220703125 -112.25399780273438,25.482999801635742 -115.86000061035156,19.55900001525879 C-117.2229995727539,17.32200050354004 -113.63999938964844,15.413999557495117 -112.28800201416016,17.63800048828125 C-112.28800201416016,17.63800048828125 -112.13500213623047,21.094999313354492 -112.13500213623047,21.094999313354492z"></path></g><g opacity="1" transform="matrix(1,0,0,1,0,0)"><path fill="rgb(0,91,255)" fill-opacity="1" d=" M-111.2040023803711,19.27400016784668 C-108.69100189208984,24.04599952697754 -107.03199768066406,32.02199935913086 -105.49700164794922,38.486000061035156 C-104.89199829101562,40.275001525878906 -105.37100219726562,41.86000061035156 -106.48500061035156,41.74800109863281 C-106.48500061035156,41.74800109863281 -110.23500061035156,42.130001068115234 -110.23500061035156,42.130001068115234 C-111.15299987792969,42.03799819946289 -112.83399963378906,39.983001708984375 -113.20999908447266,38.49100112915039 C-113.20999908447266,38.49100112915039 -117.35800170898438,22.04599952697754 -117.35800170898438,22.04599952697754 C-118.03299713134766,19.368999481201172 -117.38300323486328,17.113000869750977 -115.8550033569336,16.826000213623047 C-115.8550033569336,16.826000213623047 -119.3740005493164,14.057999610900879 -119.3740005493164,14.057999610900879 C-119.072998046875,13.09000015258789 -112.64199829101562,14.38599967956543 -111.2040023803711,19.27400016784668z"></path></g><g opacity="1" transform="matrix(1,0,0,1,0,0)"><path fill="rgb(69,69,69)" fill-opacity="1" d=" M-124.802001953125,48.46799850463867 C-124.802001953125,48.46799850463867 -106.47100067138672,59.95899963378906 -106.47100067138672,59.95899963378906 C-105.5719985961914,60.52299880981445 -104.4020004272461,59.900001525878906 -104.36499786376953,58.84000015258789 C-104.36499786376953,58.84000015258789 -103.89700317382812,45.79100036621094 -103.89700317382812,45.79100036621094 C-103.87999725341797,45.29999923706055 -104.125,44.83599853515625 -104.54299926757812,44.573001861572266 C-104.54299926757812,44.573001861572266 -122.8740005493164,33.082000732421875 -122.8740005493164,33.082000732421875 C-123.77200317382812,32.518001556396484 -124.94300079345703,33.13999938964844 -124.97899627685547,34.20000076293945 C-124.97899627685547,34.20000076293945 -125.447998046875,47.25 -125.447998046875,47.25 C-125.46499633789062,47.74300003051758 -125.22000122070312,48.207000732421875 -124.802001953125,48.46799850463867z"></path></g><g opacity="1" transform="matrix(1,0,0,1,0,0)"><path fill="rgb(255,201,152)" fill-opacity="1" d=" M-114.9739990234375,57.24100112915039 C-114.9739990234375,57.24100112915039 -113.63300323486328,57.90700149536133 -113.63300323486328,57.90700149536133 C-112.60299682617188,58.41699981689453 -111.34300231933594,57.99399948120117 -110.83000183105469,56.9640007019043 C-110.31999969482422,55.93299865722656 -110.74299621582031,54.67100143432617 -111.77300262451172,54.15800094604492 C-111.77300262451172,54.15800094604492 -113.11299896240234,53.492000579833984 -113.11299896240234,53.492000579833984 C-114.14299774169922,52.981998443603516 -115.40299987792969,53.404998779296875 -115.91600036621094,54.435001373291016 C-116.4280014038086,55.465999603271484 -116.00299835205078,56.72800064086914 -114.9739990234375,57.24100112915039z"></path></g><g opacity="0.16" transform="matrix(1,0,0,1,0,0)"><path fill="rgb(80,85,92)" fill-opacity="1" d=" M-126.79299926757812,116.19000244140625 C-118.11799621582031,116.03099822998047 -111.14900207519531,112.40499877929688 -111.22799682617188,108.09100341796875 C-111.30699920654297,103.7760009765625 -118.40399932861328,100.40799713134766 -127.0790023803711,100.56700134277344 C-135.75399780273438,100.72599792480469 -142.7220001220703,104.35199737548828 -142.64300537109375,108.66600036621094 C-142.56399536132812,112.9800033569336 -135.46800231933594,116.3489990234375 -126.79299926757812,116.19000244140625z"></path></g><g opacity="1" transform="matrix(1,0,0,1,0,0)"><path fill="rgb(69,69,69)" fill-opacity="1" d=" M-116.64700317382812,101.54000091552734 C-116.64700317382812,101.54000091552734 -120.33100128173828,100.93900299072266 -120.33100128173828,100.93900299072266 C-122.76699829101562,99.7239990234375 -123.89399719238281,98.83899688720703 -125.01799774169922,99.43699645996094 C-125.01799774169922,99.43699645996094 -125.33599853515625,99.60700225830078 -125.33599853515625,99.60700225830078 C-126.46299743652344,100.20500183105469 -126.36399841308594,101.33599853515625 -125.11799621582031,102.11799621582031 C-125.11799621582031,102.11799621582031 -119.83599853515625,106.64700317382812 -119.83599853515625,106.64700317382812 C-118.58999633789062,107.43000030517578 -116.86499786376953,107.26000213623047 -115.81600189208984,106.4020004272461 C-115.81600189208984,106.4020004272461 -115.18699645996094,105.8740005493164 -115.53900146484375,103.54100036621094 C-115.73600006103516,102.21099853515625 -115.64900207519531,102.16699981689453 -116.64700317382812,101.54000091552734z"></path></g><g opacity="1" transform="matrix(1,0,0,1,0,0)"><path fill="rgb(69,69,69)" fill-opacity="1" d=" M-133.08099365234375,108.36100006103516 C-133.08099365234375,108.36100006103516 -136.7530059814453,109.50399780273438 -136.7530059814453,109.50399780273438 C-139.56100463867188,109.54499816894531 -141.00999450683594,109.27999877929688 -141.77099609375,110.31300354003906 C-141.77099609375,110.31300354003906 -141.98699951171875,110.6050033569336 -141.98699951171875,110.6050033569336 C-142.74400329589844,111.63800048828125 -142.1280059814453,112.58100128173828 -140.61500549316406,112.7030029296875 C-140.61500549316406,112.7030029296875 -132.77499389648438,114.30699920654297 -132.77499389648438,114.30699920654297 C-131.26199340820312,114.42900085449219 -130.6179962158203,113.46399688720703 -130.05299377441406,112.23799896240234 C-130.05299377441406,112.23799896240234 -129.7050018310547,110.7239990234375 -130.47799682617188,109.0780029296875 C-131.04600524902344,107.86299896240234 -131.8719940185547,108.45800018310547 -133.08099365234375,108.36100006103516z"></path></g><g opacity="1" transform="matrix(1,0,0,1,0,0)"><path fill="rgb(255,255,255)" fill-opacity="1" d=" M-134.71299743652344,109.5790023803711 C-134.7760009765625,111.31199645996094 -130.56300354003906,111.46499633789062 -130.5,109.7300033569336 C-130.5,109.7300033569336 -130.29800415039062,104.09500122070312 -130.29800415039062,104.09500122070312 C-130.29800415039062,104.09500122070312 -134.51199340820312,103.94400024414062 -134.51199340820312,103.94400024414062 C-134.51199340820312,103.94400024414062 -134.71299743652344,109.5790023803711 -134.71299743652344,109.5790023803711z"></path></g><g opacity="1" transform="matrix(1,0,0,1,0,0)"><path fill="rgb(80,85,92)" fill-opacity="1" d=" M-135.11599731445312,105.99800109863281 C-134.66400146484375,108.21299743652344 -130.2760009765625,108.20999908447266 -129.3719940185547,106.8219985961914 C-128.9720001220703,87.85600280761719 -125.95800018310547,68.25299835205078 -120.46199798583984,48.375 C-120.46199798583984,48.375 -135.66700744628906,47.827999114990234 -135.66700744628906,47.827999114990234 C-136.44200134277344,67.26799774169922 -136.39599609375,86.66500091552734 -135.11599731445312,105.99800109863281z"></path></g><g opacity="1" transform="matrix(1,0,0,1,0,0)"><path fill="rgb(255,255,255)" fill-opacity="1" d=" M-120.072998046875,101.76100158691406 C-120.03399658203125,103.33399963378906 -115.82099914550781,103.48699951171875 -115.86000061035156,101.91200256347656 C-115.86000061035156,101.91200256347656 -115.98799896240234,96.7969970703125 -115.98799896240234,96.7969970703125 C-115.98799896240234,96.7969970703125 -120.2020034790039,96.64600372314453 -120.2020034790039,96.64600372314453 C-120.2020034790039,96.64600372314453 -120.072998046875,101.76100158691406 -120.072998046875,101.76100158691406z"></path></g><g opacity="1" transform="matrix(1,0,0,1,0,0)"><path fill="rgb(80,85,92)" fill-opacity="1" d=" M-120.81700134277344,99.46399688720703 C-119.1969985961914,101.25800323486328 -115.85800170898438,100.63800048828125 -115.17500305175781,99.40799713134766 C-115.17500305175781,99.40799713134766 -115.58300018310547,48.49700164794922 -115.58300018310547,48.49700164794922 C-115.58300018310547,48.49700164794922 -126.22799682617188,49.685001373291016 -126.22799682617188,49.685001373291016 C-126.22799682617188,49.685001373291016 -120.81700134277344,99.46399688720703 -120.81700134277344,99.46399688720703z"></path></g><g opacity="1" transform="matrix(1,0,0,1,0,0)"><path fill="rgb(255,201,152)" fill-opacity="1" d=" M-129.46200561523438,8.814000129699707 C-128.28700256347656,12.418999671936035 -125.54499816894531,13.347999572753906 -123.33799743652344,10.885000228881836 C-121.12999725341797,8.42300033569336 -120.29199981689453,3.506999969482422 -121.46700286865234,-0.09799999743700027 C-122.64299774169922,-3.703000068664551 -126.65699768066406,-1.2380000352859497 -128.86500549316406,1.225000023841858 C-131.072998046875,3.687000036239624 -130.63800048828125,5.210999965667725 -129.46200561523438,8.814000129699707z"></path></g><g opacity="1" transform="matrix(1,0,0,1,0,0)"><path fill="rgb(255,201,152)" fill-opacity="1" d=" M-132.5540008544922,8.935999870300293 C-131.64100646972656,12.616000175476074 -127.78700256347656,14.074999809265137 -125.40899658203125,11.777000427246094 C-123.03199768066406,9.482000350952148 -121.84200286865234,4.638000011444092 -122.75700378417969,0.9570000171661377 C-123.66999816894531,-2.7230000495910645 -126.33899688720703,-3.8459999561309814 -128.7169952392578,-1.5490000247955322 C-131.09500122070312,0.7480000257492065 -133.4669952392578,5.255000114440918 -132.5540008544922,8.935999870300293z"></path></g><g opacity="1" transform="matrix(1,0,0,1,0,0)"><path fill="rgb(255,201,152)" fill-opacity="1" d=" M-124.10700225830078,19.764999389648438 C-124.10700225830078,19.764999389648438 -123.71399688720703,19.691999435424805 -123.71399688720703,19.691999435424805 C-122.38500213623047,19.444000244140625 -121.5009994506836,18.1560001373291 -121.74700164794922,16.826000213623047 C-121.74700164794922,16.826000213623047 -123.13600158691406,9.331999778747559 -123.13600158691406,9.331999778747559 C-123.38400268554688,8.001999855041504 -124.6709976196289,7.117000102996826 -125.9990005493164,7.36299991607666 C-125.9990005493164,7.36299991607666 -126.39299774169922,7.435999870300293 -126.39299774169922,7.435999870300293 C-127.72100067138672,7.684000015258789 -128.60499572753906,8.972000122070312 -128.36000061035156,10.302000045776367 C-128.36000061035156,10.302000045776367 -128.0800018310547,17.701000213623047 -128.0800018310547,17.701000213623047 C-127.83499908447266,19.02899932861328 -125.43299865722656,20.01099967956543 -124.10700225830078,19.764999389648438z"></path></g><g opacity="1" transform="matrix(1,0,0,1,0,0)"><path fill="rgb(69,69,69)" fill-opacity="1" d=" M-119.32099914550781,9.958999633789062 C-119.32099914550781,9.958999633789062 -119.83799743652344,13.376999855041504 -124.68499755859375,12.513999938964844 C-128.16299438476562,11.895999908447266 -126.93900299072266,6.242000102996826 -130.41200256347656,5.544000148773193 C-134.23199462890625,4.7789998054504395 -134.75900268554688,0.0020000000949949026 -133.17799377441406,-1.7680000066757202 C-131.60000610351562,-3.5380001068115234 -127.33300018310547,-4.340000152587891 -124.31400299072266,-2.875999927520752 C-121.29499816894531,-1.4129999876022339 -116.56900024414062,-1.3179999589920044 -119.32099914550781,9.958999633789062z"></path></g><g opacity="1" transform="matrix(1,0,0,1,0,0)"><path fill="rgb(255,201,152)" fill-opacity="1" d=" M-128.0540008544922,8.562000274658203 C-127.2509994506836,8.109999656677246 -126.96600341796875,7.091000080108643 -127.41799926757812,6.288000106811523 C-127.87000274658203,5.484000205993652 -128.88699340820312,5.198999881744385 -129.69000244140625,5.651000022888184 C-130.49400329589844,6.103000164031982 -130.7779998779297,7.122000217437744 -130.3260040283203,7.926000118255615 C-129.87399291992188,8.729000091552734 -128.85699462890625,9.013999938964844 -128.0540008544922,8.562000274658203z"></path></g><g opacity="1" transform="matrix(1,0,0,1,0,0)"><path fill="rgb(2,87,238)" fill-opacity="1" d=" M-115.11699676513672,47.790000915527344 C-116.11499786376953,40.91999816894531 -113.38500213623047,36.356998443603516 -113.23200225830078,29.09600067138672 C-112.20700073242188,17.006999969482422 -115.99099731445312,13.557000160217285 -120.18800354003906,13.843999862670898 C-120.18800354003906,13.843999862670898 -124.00800323486328,14.824000358581543 -124.87999725341797,15.234000205993652 C-134.1300048828125,19.593000411987305 -136.60699462890625,20.950000762939453 -136.4029998779297,26.39699935913086 C-136.76499938964844,35.34600067138672 -135.80799865722656,45.43199920654297 -135.77699279785156,49.840999603271484 C-134.1280059814453,56.10100173950195 -117.35399627685547,52.145999908447266 -115.11699676513672,47.790000915527344z"></path></g><g opacity="1" transform="matrix(1,0,0,1,0,0)"><path fill="rgb(236,167,56)" fill-opacity="1" d=" M-128.26300048828125,12.87600040435791 C-128.26300048828125,12.87600040435791 -127.83499908447266,11.97700023651123 -127.83499908447266,11.97700023651123 C-127.83499908447266,11.97700023651123 -128.56399536132812,12.654999732971191 -129.89700317382812,12.435999870300293 C-129.89700317382812,12.435999870300293 -129.1230010986328,12.916999816894531 -128.26300048828125,12.87600040435791z"></path></g><g opacity="1" transform="matrix(1,0,0,1,0,0)"><path fill="rgb(48,48,48)" fill-opacity="1" d=" M-124.45899963378906,66.70700073242188 C-124.45899963378906,66.70700073242188 -119.76300048828125,60.446998596191406 -119.76300048828125,60.446998596191406 C-119.76300048828125,60.446998596191406 -124.29900360107422,62.25299835205078 -124.29900360107422,62.25299835205078 C-124.29900360107422,62.25299835205078 -124.45899963378906,66.70700073242188 -124.45899963378906,66.70700073242188z"></path></g><g opacity="1" transform="matrix(1,0,0,1,0,0)"><path fill="rgb(255,255,255)" fill-opacity="1" d=" M-175.18099975585938,0.14300000667572021 C-176.05799865722656,0.3569999933242798 -176.9340057373047,-0.12200000137090683 -177.13099670410156,-0.9200000166893005 C-177.13099670410156,-0.9200000166893005 -177.6750030517578,-3.128999948501587 -177.6750030517578,-3.128999948501587 C-177.8719940185547,-3.927000045776367 -177.3159942626953,-4.752999782562256 -176.43899536132812,-4.9670000076293945 C-175.56199645996094,-5.181000232696533 -174.68499755859375,-4.702000141143799 -174.48899841308594,-3.9049999713897705 C-174.48899841308594,-3.9049999713897705 -173.94500732421875,-1.6950000524520874 -173.94500732421875,-1.6950000524520874 C-173.7480010986328,-0.8980000019073486 -174.3040008544922,-0.07100000232458115 -175.18099975585938,0.14300000667572021z"></path></g><g opacity="1" transform="matrix(1,0,0,1,0,0)"><path fill="rgb(255,255,255)" fill-opacity="1" d=" M-176.38999938964844,-0.31200000643730164 C-175.625,3.874000072479248 -176.13499450683594,9.25100040435791 -176.41400146484375,14.560999870300293 C-176.41400146484375,14.560999870300293 -172.927001953125,16.833999633789062 -172.927001953125,16.833999633789062 C-172.927001953125,16.833999633789062 -171.13699340820312,13.480999946594238 -171.13699340820312,13.480999946594238 C-171.52099609375,8.350000381469727 -172.5800018310547,3.385999917984009 -174.0850067138672,-1.0440000295639038 C-174.0850067138672,-1.0440000295639038 -176.38999938964844,-0.31200000643730164 -176.38999938964844,-0.31200000643730164z"></path></g><g opacity="1" transform="matrix(1,0,0,1,0,0)"><path fill="rgb(255,255,255)" fill-opacity="1" d=" M-180.27099609375,-9.065999984741211 C-180.27099609375,-9.065999984741211 -183.2270050048828,-6.73199987411499 -183.2270050048828,-6.73199987411499 C-183.2270050048828,-6.73199987411499 -180.96800231933594,-2.756999969482422 -178.36000061035156,-2.1500000953674316 C-178.36000061035156,-2.1500000953674316 -176.38800048828125,-5.269000053405762 -176.38800048828125,-5.269000053405762 C-176.38800048828125,-5.265999794006348 -179.44500732421875,-6.5370001792907715 -180.27099609375,-9.065999984741211z"></path></g><g opacity="1" transform="matrix(1,0,0,1,0,0)"><path fill="rgb(255,255,255)" fill-opacity="1" d=" M-174.5590057373047,-10.553000450134277 C-174.5590057373047,-10.553000450134277 -172.08700561523438,-9.359999656677246 -172.08700561523438,-9.359999656677246 C-172.08700561523438,-9.359999656677246 -171.01100158691406,-3.9100000858306885 -173.62399291992188,-2.8299999237060547 C-173.62399291992188,-2.8299999237060547 -176.7519989013672,-5.254000186920166 -176.7519989013672,-5.254000186920166 C-176.75,-5.254000186920166 -174.41099548339844,-6.421000003814697 -174.5590057373047,-10.553000450134277z"></path></g><g opacity="1" transform="matrix(1,0,0,1,0,0)"><path fill="rgb(255,201,152)" fill-opacity="1" d=" M-169.07200622558594,-15.026000022888184 C-168.947998046875,-18.841999053955078 -170.5989990234375,-21.993000030517578 -172.75999450683594,-22.06399917602539 C-174.92100524902344,-22.134000778198242 -176.7740020751953,-19.097999572753906 -176.8979949951172,-15.281000137329102 C-177.02200317382812,-11.46500015258789 -175.37100219726562,-8.314000129699707 -173.2100067138672,-8.244000434875488 C-171.0489959716797,-8.17300033569336 -169.1959991455078,-11.210000038146973 -169.07200622558594,-15.026000022888184z"></path></g><g opacity="1" transform="matrix(1,0,0,1,0,0)"><path fill="rgb(255,201,152)" fill-opacity="1" d=" M-179.66900634765625,-11.741999626159668 C-178.45700073242188,-8.664999961853027 -173.0919952392578,-6.776000022888184 -171.3000030517578,-9.034000396728516 C-169.5050048828125,-11.291999816894531 -170.8990020751953,-16.68899917602539 -172.10899353027344,-19.767000198364258 C-173.3179931640625,-22.8439998626709 -175.7570037841797,-23.507999420166016 -177.55099487304688,-21.25 C-179.3459930419922,-18.990999221801758 -180.88099670410156,-14.819999694824219 -179.66900634765625,-11.741999626159668z"></path></g><g opacity="1" transform="matrix(1,0,0,1,0,0)"><path fill="rgb(69,69,69)" fill-opacity="1" d=" M-176.1280059814453,-19.23699951171875 C-176.1280059814453,-19.23699951171875 -175.41900634765625,-13.142000198364258 -180.24200439453125,-11.763999938964844 C-180.24200439453125,-11.763999938964844 -185.69200134277344,-14.897000312805176 -181.71099853515625,-20.774999618530273 C-178.20199584960938,-25.95599937438965 -172.54600524902344,-22.03499984741211 -172.54600524902344,-22.03499984741211 C-172.54600524902344,-22.03499984741211 -176.1280059814453,-19.23699951171875 -176.1280059814453,-19.23699951171875z"></path></g><g opacity="1" transform="matrix(1,0,0,1,0,0)"><path fill="rgb(69,69,69)" fill-opacity="1" d=" M-169.08299255371094,-15.14799976348877 C-169.08299255371094,-15.14799976348877 -169.73399353027344,-17.759000778198242 -172.91299438476562,-18.854999542236328 C-172.91299438476562,-18.854999542236328 -170.41400146484375,-20.35700035095215 -170.41400146484375,-20.35700035095215 C-170.41099548339844,-20.35700035095215 -167.8509979248047,-19.77899932861328 -169.08299255371094,-15.14799976348877z"></path></g><g opacity="1" transform="matrix(1,0,0,1,0,0)"><path fill="rgb(69,69,69)" fill-opacity="1" d=" M-178.64199829101562,-15.651000022888184 C-177.58799743652344,-17.079999923706055 -175.32400512695312,-17.06800079345703 -172.10400390625,-15.916000366210938 C-171.61300659179688,-15.741000175476074 -171.08599853515625,-15.657999992370605 -170.5760040283203,-15.765000343322754 C-168.18699645996094,-16.263999938964844 -167.83200073242188,-19.233999252319336 -167.83200073242188,-19.233999252319336 C-167.32000732421875,-21.219999313354492 -168.63600158691406,-22.114999771118164 -170.6199951171875,-22.625 C-170.6199951171875,-22.625 -175.78799438476562,-23.959999084472656 -175.78799438476562,-23.959999084472656 C-178.71200561523438,-24.731000900268555 -181.53900146484375,-22.320999145507812 -182.0489959716797,-20.33300018310547 C-182.0489959716797,-20.33300018310547 -182.18299865722656,-20.0049991607666 -182.18299865722656,-20.0049991607666 C-182.697998046875,-18.020999908447266 -180.62600708007812,-16.163999557495117 -178.64199829101562,-15.651000022888184z"></path></g><g opacity="1" transform="matrix(1,0,0,1,0,0)"><path fill="rgb(255,201,152)" fill-opacity="1" d=" M-180.781005859375,-11.954000473022461 C-180.48699951171875,-11.204999923706055 -179.64199829101562,-10.838000297546387 -178.8939971923828,-11.131999969482422 C-178.14599609375,-11.425999641418457 -177.7790069580078,-12.272000312805176 -178.072998046875,-13.020999908447266 C-178.36700439453125,-13.770000457763672 -179.21200561523438,-14.13700008392334 -179.9600067138672,-13.843000411987305 C-180.70799255371094,-13.545999526977539 -181.07699584960938,-12.699999809265137 -180.781005859375,-11.954000473022461z"></path></g></g></g></svg>